<svg xmlns="http://www.w3.org/2000/svg" xmlns:xlink="http://www.w3.org/1999/xlink" viewBox="0 0 1735.09 1051.923"><defs><style>.cls-1,.cls-7{fill:#ededed;}.cls-2{fill:#ea7206;}.cls-3{fill:#008d8f;}.cls-4{isolation:isolate;}.cls-5{fill:#2f2a7d;}.cls-6{clip-path:url(#clip-path);}.cls-10,.cls-11,.cls-13,.cls-14,.cls-15,.cls-7{fill-rule:evenodd;}.cls-11,.cls-7{mix-blend-mode:screen;opacity:0.26;}.cls-8{clip-path:url(#clip-path-2);}.cls-9{clip-path:url(#clip-path-3);}.cls-10{fill:#ed791f;}.cls-11{fill:#ed771e;}.cls-12{clip-path:url(#clip-path-4);}.cls-13{fill:#009691;opacity:0.55;}.cls-14{fill:#01aca8;}.cls-14,.cls-15{mix-blend-mode:soft-light;opacity:0.42;}.cls-15{fill:#47bab8;}</style><clipPath id="clip-path"><rect class="cls-1" x="0.006" y="1153.305" width="1735.09" height="1051.923"/></clipPath><clipPath id="clip-path-2"><rect class="cls-1" x="1848.926" y="1153.326" width="1735.09" height="1051.923"/></clipPath><clipPath id="clip-path-3"><rect class="cls-2" width="1735.09" height="1051.923"/></clipPath><clipPath id="clip-path-4"><rect class="cls-3" x="1848.973" y="0.025" width="1735.09" height="1051.923"/></clipPath></defs><g class="cls-4"><g id="Layer_1" data-name="Layer 1"><g id="Layer_2" data-name="Layer 2"><rect class="cls-5" x="-1843.705" width="1735.09" height="1051.923"/></g><g id="Content_Page" data-name="Content Page"><rect class="cls-5" x="-1843.705" y="1153.301" width="1735.09" height="1051.923"/></g><g id="Typeface"><rect class="cls-1" x="0.006" y="1153.305" width="1735.09" height="1051.923"/><g class="cls-6"><path class="cls-7" d="M482.02,1723.45v-8.206l9.563,6.829Zm1262.586-646.639c-10.5-44.546-64.765-36.6-120.151-77.464-36.807-27.156-53.662-57.656-105.243-91.459-15.634-10.237-14.638-9.066-30.855-18.085L1457.9,871.646c-129.218-77.5-315.989-75.178-420.111,38.561-7.007,7.652-2.184,1.984-10.157,12.825l-6.46,9.435c-.986,1.426-2.314,3.463-3.316,4.906L826.527,1229.321l-52.48,72.525c-2.637,4.234-14.084,23.607-14.805,24.6l-50.948,74.007c-23.831,34.936-31.5,16.806-75.819-7.914l-175.064-95.583L235.946,1206.68C-247.4,1012.047-769.257,969.449-1289.74,968.808c-128.84-.155-337.549,24.608-467.536,24.608,11.367,42.568,223.561,212.8,252.279,239.887l161.129,125.941c24.444,17.722,38.358,20.745,54.138,44.3-36.729.818-97.328,20.472-123.04,32.807l90.2,65.644c102.771,68.951,376.2,212.268,495.971,251.117,2.635.85,10.558,3.276,13.082,4.184,35.4,12.757-7.464-3.421,17.1,7.162,335.673,144.512,818.284,196.268,1171.933,16.524,30.585-15.537,74.172-48.149,106.511-57.535-7.19,29.051-186.408,275.024-218.2,323.163L152.25,2205.73c-13.632,20.608-22,33.441-37.089,53.14-14.638,19.092-24.768,31.63-38.468,51.761L-116.771,2568.3c34.384-.764,63.379-17.175,90.152-32.893,19-11.156,19.557-13.5,42.13-23.48l204.022-115.88L73.012,2717.068c-9.475,24.361-15.328,35.4-25.79,56.188l-229.608,492.256c32.2-8.589,97.569-85.29,125.072-112.8,43.714-43.709,82.6-99.349,121.007-125.071,7.759,16.169,11.847,37.871,16.4,57.419,30.944-8.26,18.969-4.979,49.217-65.626l153.079-306.26c13.758-27.423,22.544-52.053,37.187-77.648l80.418-157.45c76.3,0,147.849-16.941,215.131-30.942,198.608-41.329,388.571-104.708,552.511-226.741,16.84-12.533,32.368-22.592,46.582-35.445,19.821-17.944,26.67-26.452,47.18-43.049l79.662-92.577c203.287-266.236,100.477-516.21,100.447-711.617-.019-100.074,57.1-163.688,139.477-203.507l89.548-35c42.214-14.142,74.193-18.9,74.153-22.076ZM219.533,2396.052l8.2-8.215Z"/></g></g><g id="Typeface_copy" data-name="Typeface copy"><rect class="cls-1" x="1848.926" y="1153.326" width="1735.09" height="1051.923"/><g class="cls-8"><path class="cls-7" d="M2330.94,1723.47v-8.206l9.563,6.829Zm1262.586-646.638c-10.5-44.547-64.765-36.6-120.151-77.464-36.807-27.156-53.662-57.657-105.243-91.46-15.634-10.237-14.638-9.066-30.856-18.084l-30.457-18.158c-129.219-77.5-315.989-75.178-420.112,38.561-7.006,7.653-2.183,1.984-10.156,12.825l-6.461,9.436c-.986,1.425-2.313,3.463-3.315,4.9l-191.329,291.948-52.479,72.525c-2.637,4.234-14.084,23.607-14.805,24.6l-50.948,74.007c-23.831,34.935-31.5,16.805-75.82-7.915l-175.063-95.582L2084.865,1206.7c-483.35-194.634-1005.2-237.232-1525.685-237.873-128.84-.154-337.549,24.609-467.536,24.609,11.367,42.567,223.561,212.8,252.279,239.886l161.129,125.942c24.444,17.721,38.358,20.745,54.138,44.3-36.729.818-97.328,20.473-123.04,32.807l90.2,65.645c102.771,68.951,376.2,212.267,495.971,251.116,2.634.851,10.557,3.276,13.082,4.185,35.4,12.756-7.464-3.422,17.1,7.162,335.673,144.512,818.284,196.268,1171.933,16.524,30.585-15.538,74.172-48.15,106.511-57.536-7.19,29.051-186.409,275.024-218.2,323.163L2001.17,2205.751c-13.632,20.607-22,33.441-37.089,53.139-14.638,19.093-24.769,31.631-38.468,51.762l-193.464,257.673c34.384-.763,63.379-17.174,90.152-32.893,19-11.156,19.557-13.5,42.13-23.48l204.022-115.88-146.521,321.016c-9.475,24.361-15.329,35.4-25.79,56.188l-229.608,492.257c32.2-8.589,97.569-85.29,125.072-112.8,43.714-43.709,82.6-99.35,121.007-125.072,7.759,16.169,11.847,37.871,16.4,57.419,30.944-8.26,18.969-4.979,49.217-65.625l153.079-306.26c13.758-27.424,22.544-52.053,37.187-77.648l80.418-157.45c76.3,0,147.849-16.941,215.131-30.943,198.608-41.329,388.571-104.707,552.511-226.741,16.84-12.533,32.368-22.592,46.582-35.444,19.821-17.945,26.67-26.453,47.18-43.049l79.662-92.577c203.287-266.237,100.476-516.211,100.447-711.618-.019-100.074,57.1-163.688,139.477-203.507l89.548-35c42.214-14.142,74.193-18.9,74.153-22.076ZM2068.453,2396.072l8.2-8.215Z"/></g></g><g id="Layer_2_copy" data-name="Layer 2 copy"><rect class="cls-2" width="1735.09" height="1051.923"/><g class="cls-9"><path class="cls-10" d="M371.724,818.35v-5.24l6.106,4.36Zm806.121-412.858c-6.7-28.442-41.35-23.37-76.713-49.459-23.5-17.338-34.261-36.811-67.194-58.394-9.982-6.536-9.346-5.788-19.7-11.546L994.792,274.5c-82.5-49.483-201.749-48-268.228,24.62-4.473,4.886-1.394,1.267-6.485,8.188l-4.124,6.025c-.63.909-1.478,2.21-2.117,3.131l-122.157,186.4-33.507,46.305c-1.683,2.7-8.992,15.072-9.452,15.705l-32.529,47.251c-15.215,22.3-20.111,10.73-48.408-5.053L356.012,546.046l-141.4-57.637c-308.6-124.268-641.79-151.465-974.1-151.874-82.26-.1-215.514,15.711-298.507,15.711,7.257,27.178,142.737,135.865,161.072,153.16l102.876,80.41c15.607,11.315,24.49,13.245,34.565,28.286-23.45.522-62.14,13.071-78.557,20.946l57.587,41.912c65.616,44.023,240.19,135.526,316.662,160.33,1.682.543,6.741,2.091,8.353,2.671,22.6,8.145-4.766-2.184,10.916,4.573C-230.2,936.8,77.927,969.845,303.721,855.084c19.527-9.92,47.356-30.742,68-36.734-4.59,18.548-119.016,175.594-139.316,206.329L161.177,1126.27c-8.7,13.158-14.049,21.351-23.68,33.928-9.346,12.19-15.814,20.195-24.561,33.048L-10.585,1357.763c21.954-.488,40.466-10.966,57.56-21,12.132-7.123,12.486-8.622,26.9-14.992l130.261-73.985-93.548,204.958c-6.05,15.554-9.787,22.6-16.466,35.874l-146.6,314.291c20.56-5.484,62.3-54.456,79.854-72.017,27.911-27.907,52.739-63.432,77.26-79.855,4.953,10.324,7.564,24.18,10.469,36.661,19.757-5.274,12.112-3.179,31.424-41.9l97.736-195.537c8.784-17.509,14.393-33.234,23.742-49.576l51.345-100.527c48.716,0,94.4-10.816,137.354-19.756,126.8-26.387,248.091-66.852,352.761-144.766,10.752-8,20.666-14.425,29.741-22.631,12.655-11.457,17.028-16.889,30.123-27.485l50.862-59.108c129.792-169.983,64.151-329.584,64.132-454.345-.012-63.894,36.456-104.509,89.051-129.933l57.174-22.349c26.952-9.029,47.37-12.067,47.344-14.094ZM204.134,1247.785l5.233-5.245Z"/><path class="cls-11" d="M467.987,741.41v-6.282l7.32,5.228Zm966.537-495.016c-8.039-34.1-49.579-28.019-91.978-59.3-28.177-20.789-41.08-44.138-80.566-70.015-11.968-7.836-11.206-6.94-23.62-13.844l-23.316-13.9c-98.92-59.33-241.9-57.55-321.605,29.52-5.363,5.858-1.672,1.518-7.775,9.817l-4.946,7.224c-.755,1.091-1.771,2.65-2.538,3.755L731.714,363.143l-40.175,55.52c-2.018,3.241-10.781,18.072-11.333,18.831l-39,56.653c-18.243,26.744-24.112,12.866-58.041-6.058L449.148,414.918,279.611,345.812c-370.015-149-769.5-181.606-1167.946-182.1-98.63-.118-258.4,18.838-357.909,18.838,8.7,32.587,171.141,162.9,193.125,183.639L-929.771,462.6c18.712,13.566,29.364,15.881,41.444,33.914-28.117.627-74.507,15.672-94.19,25.115l69.047,50.252c78.673,52.784,287.987,162.5,379.676,192.235,2.017.651,8.083,2.508,10.015,3.2,27.1,9.765-5.714-2.62,13.088,5.482,256.965,110.627,626.415,150.248,897.141,12.65,23.413-11.9,56.78-36.859,81.537-44.045-5.5,22.239-142.7,210.537-167.04,247.389l-85.406,121.808c-10.437,15.775-16.845,25.6-28.393,40.679-11.206,14.616-18.961,24.214-29.448,39.625L9.6,1388.165c26.322-.584,48.518-13.147,69.013-25.18,14.547-8.54,14.971-10.337,32.252-17.974L267.047,1256.3,154.882,1502.047c-7.253,18.648-11.734,27.1-19.743,43.013l-175.77,376.833c24.651-6.575,74.692-65.291,95.745-86.347,33.464-33.461,63.233-76.055,92.634-95.746,5.939,12.378,9.069,28.991,12.553,43.956,23.688-6.323,14.521-3.812,37.677-50.238l117.185-234.449c10.532-20.993,17.258-39.847,28.467-59.441L405.192,1319.1c58.41,0,113.182-12.968,164.688-23.687,152.039-31.638,297.46-80.156,422.959-173.575,12.891-9.594,24.779-17.294,35.66-27.133,15.173-13.737,20.417-20.25,36.117-32.955l60.983-70.87c155.621-203.81,76.917-395.171,76.895-544.759-.015-76.609,43.71-125.307,106.772-155.789l68.552-26.8c32.315-10.826,56.8-14.469,56.765-16.9ZM267.047,1256.3l6.274-6.289Z"/><path class="cls-11" d="M482.014,570.144v-8.206l9.563,6.829ZM1744.6-76.494c-10.5-44.546-64.765-36.6-120.152-77.464-36.807-27.156-53.662-57.656-105.243-91.46-15.634-10.237-14.638-9.065-30.855-18.084l-30.457-18.157c-129.219-77.5-315.989-75.179-420.112,38.561-7.006,7.652-2.184,1.984-10.157,12.825l-6.46,9.435c-.986,1.425-2.314,3.463-3.315,4.905L826.521,76.015l-52.48,72.526c-2.636,4.234-14.084,23.607-14.8,24.6l-50.948,74.007c-23.831,34.935-31.5,16.806-75.82-7.915L457.405,143.649,235.94,53.375C-247.41-141.259-769.263-183.856-1289.746-184.5c-128.84-.154-337.548,24.609-467.536,24.609C-1745.915-117.322-1533.721,52.909-1505,80l161.129,125.942c24.445,17.721,38.359,20.745,54.139,44.3-36.729.818-97.328,20.472-123.04,32.807l90.2,65.644c102.771,68.951,376.2,212.268,495.971,251.116,2.635.851,10.558,3.276,13.083,4.185,35.4,12.756-7.464-3.422,17.1,7.162C-460.757,755.668,21.855,807.424,375.5,627.68c30.584-15.538,74.171-48.149,106.51-57.536-7.189,29.051-186.408,275.024-218.2,323.164L152.245,1052.425c-13.633,20.608-22,33.441-37.089,53.14-14.639,19.092-24.769,31.63-38.469,51.761L-116.777,1415c34.385-.763,63.379-17.174,90.153-32.892,19-11.156,19.556-13.5,42.13-23.481l204.021-115.879L73.007,1563.763c-9.476,24.36-15.329,35.4-25.791,56.187l-229.608,492.257c32.2-8.589,97.57-85.29,125.072-112.8,43.714-43.709,82.6-99.35,121.007-125.072,7.759,16.169,11.848,37.871,16.4,57.419,30.944-8.259,18.97-4.978,49.218-65.625l153.078-306.26c13.758-27.423,22.544-52.053,37.187-77.648l80.418-157.45c76.3,0,147.849-16.941,215.132-30.943,198.607-41.328,388.571-104.707,552.51-226.74,16.84-12.534,32.368-22.592,46.582-35.445,19.821-17.944,26.671-26.452,47.181-43.049l79.661-92.577C1544.34,629.785,1441.529,379.811,1441.5,184.4c-.019-100.074,57.1-163.687,139.476-203.507l89.549-35c42.213-14.141,74.192-18.9,74.152-22.075ZM219.527,1242.747l8.2-8.215Z"/></g></g><g id="Layer_2_copy_2" data-name="Layer 2 copy 2"><rect class="cls-3" x="1848.973" y="0.025" width="1735.09" height="1051.923"/><g class="cls-12"><path class="cls-13" d="M2220.7,818.374v-5.239l6.106,4.36Zm806.121-412.858c-6.7-28.441-41.35-23.369-76.713-49.458-23.5-17.338-34.261-36.812-67.194-58.394-9.982-6.536-9.346-5.788-19.7-11.546l-19.446-11.593c-82.5-49.483-201.749-48-268.228,24.62-4.473,4.885-1.394,1.266-6.485,8.188l-4.124,6.024c-.63.91-1.478,2.211-2.117,3.132l-122.157,186.4-33.507,46.3c-1.683,2.7-8.992,15.072-9.452,15.705l-32.529,47.251c-15.215,22.305-20.111,10.73-48.408-5.053l-111.773-61.026-141.4-57.638c-308.6-124.267-641.79-151.464-974.1-151.874-82.26-.1-215.514,15.712-298.507,15.712,7.257,27.178,142.736,135.865,161.072,153.16l102.876,80.41c15.607,11.314,24.49,13.245,34.565,28.286-23.45.522-62.14,13.071-78.557,20.946l57.587,41.912c65.616,44.023,240.19,135.526,316.662,160.33,1.682.543,6.741,2.091,8.353,2.671,22.6,8.145-4.766-2.184,10.915,4.573,214.317,92.266,522.449,125.311,748.243,10.55,19.527-9.92,47.356-30.742,68-36.735-4.59,18.549-119.016,175.594-139.316,206.33L2010.15,1126.3c-8.7,13.158-14.049,21.351-23.681,33.928-9.345,12.19-15.814,20.195-24.56,33.048l-123.521,164.516c21.954-.487,40.466-10.965,57.56-21,12.132-7.122,12.486-8.621,26.9-14.991l130.261-73.985-93.548,204.958c-6.05,15.553-9.787,22.6-16.466,35.874l-146.6,314.29c20.559-5.483,62.3-54.455,79.854-72.016,27.911-27.907,52.739-63.432,77.26-79.855,4.953,10.324,7.564,24.18,10.469,36.661,19.757-5.274,12.112-3.179,31.424-41.9l97.736-195.537c8.784-17.509,14.393-33.234,23.742-49.576l51.345-100.527c48.716,0,94.4-10.816,137.354-19.756,126.8-26.387,248.091-66.852,352.761-144.767,10.751-8,20.666-14.424,29.741-22.63,12.655-11.457,17.028-16.889,30.123-27.485l50.862-59.108c129.792-169.983,64.151-329.584,64.132-454.345-.012-63.894,36.456-104.509,89.051-129.933l57.174-22.349c26.952-9.029,47.37-12.067,47.344-14.094ZM2053.107,1247.81l5.233-5.245Z"/><path class="cls-14" d="M2316.959,741.435v-6.282l7.321,5.228ZM3283.5,246.419c-8.039-34.1-49.579-28.02-91.978-59.3-28.177-20.788-41.08-44.137-80.566-70.014-11.968-7.837-11.206-6.94-23.621-13.844l-23.315-13.9c-98.92-59.33-241.9-57.55-321.6,29.519-5.363,5.858-1.672,1.519-7.775,9.818l-4.946,7.223c-.755,1.091-1.771,2.651-2.538,3.755L2580.687,363.168l-40.175,55.52c-2.018,3.241-10.781,18.072-11.333,18.831l-39,56.653c-18.243,26.744-24.112,12.866-58.041-6.059l-134.015-73.17-169.537-69.107c-370.015-149-769.5-181.606-1167.946-182.1-98.63-.119-258.4,18.838-357.909,18.838,8.7,32.586,171.141,162.9,193.125,183.638L919.2,462.628c18.712,13.566,29.364,15.88,41.444,33.914-28.117.626-74.507,15.672-94.19,25.115L935.5,571.909c78.673,52.783,287.987,162.5,379.676,192.235,2.017.651,8.082,2.508,10.015,3.2,27.1,9.766-5.714-2.619,13.088,5.483,256.965,110.627,626.415,150.248,897.141,12.65,23.413-11.895,56.78-36.86,81.536-44.045-5.5,22.239-142.7,210.537-167.039,247.389l-85.406,121.807c-10.437,15.776-16.845,25.6-28.393,40.68-11.206,14.615-18.961,24.214-29.448,39.624l-148.1,197.255c26.322-.584,48.518-13.147,69.013-25.18,14.547-8.54,14.971-10.338,32.252-17.975l156.183-88.708-112.165,245.745c-7.254,18.648-11.735,27.1-19.743,43.013l-175.77,376.833c24.651-6.575,74.691-65.291,95.745-86.348,33.464-33.46,63.233-76.054,92.634-95.745,5.939,12.378,9.069,28.991,12.553,43.956,23.688-6.323,14.521-3.812,37.677-50.238l117.185-234.449c10.532-20.993,17.258-39.848,28.467-59.441l61.562-120.532c58.41,0,113.182-12.968,164.688-23.687,152.038-31.638,297.46-80.156,422.959-173.575,12.891-9.6,24.779-17.295,35.66-27.134,15.173-13.736,20.416-20.25,36.117-32.955l60.983-70.869c155.621-203.81,76.917-395.171,76.895-544.759-.015-76.609,43.71-125.307,106.772-155.79l68.552-26.8c32.315-10.826,56.8-14.469,56.765-16.9ZM2116.02,1256.327l6.274-6.289Z"/><path class="cls-15" d="M2330.987,570.169v-8.206l9.563,6.829ZM3593.574-76.469c-10.5-44.546-64.765-36.6-120.152-77.464-36.807-27.156-53.662-57.656-105.243-91.46-15.634-10.237-14.638-9.065-30.855-18.084l-30.457-18.158c-129.219-77.5-315.989-75.178-420.112,38.561-7.006,7.653-2.184,1.984-10.157,12.825l-6.46,9.436c-.986,1.425-2.314,3.463-3.315,4.905L2675.494,76.04l-52.48,72.525c-2.636,4.235-14.084,23.608-14.805,24.6l-50.947,74.007c-23.831,34.935-31.5,16.806-75.82-7.915l-175.064-95.582L2084.913,53.4C1601.562-141.234,1079.71-183.832,559.227-184.473c-128.84-.154-337.549,24.609-467.536,24.609C103.058-117.3,315.252,52.933,343.97,80.022L505.1,205.964c24.445,17.721,38.359,20.745,54.139,44.3-36.73.819-97.328,20.473-123.04,32.807l90.2,65.645c102.771,68.951,376.2,212.267,495.971,251.116,2.635.851,10.558,3.276,13.083,4.185,35.4,12.756-7.464-3.422,17.1,7.162,335.673,144.512,818.285,196.268,1171.934,16.524,30.584-15.538,74.171-48.149,106.51-57.536-7.189,29.051-186.408,275.024-218.2,323.164L2001.218,1052.45c-13.633,20.608-22,33.441-37.09,53.14-14.638,19.092-24.768,31.63-38.468,51.761L1732.2,1415.024c34.385-.763,63.379-17.174,90.153-32.893,19-11.156,19.556-13.5,42.129-23.48L2068.5,1242.772l-146.52,321.016c-9.476,24.36-15.329,35.4-25.791,56.187l-229.608,492.257c32.2-8.589,97.57-85.29,125.072-112.8,43.714-43.709,82.6-99.35,121.007-125.072,7.759,16.169,11.848,37.871,16.4,57.419,30.944-8.259,18.97-4.979,49.218-65.625l153.078-306.26c13.758-27.424,22.544-52.053,37.187-77.648l80.418-157.45c76.3,0,147.849-16.941,215.132-30.943,198.607-41.328,388.57-104.707,552.51-226.74,16.84-12.534,32.368-22.592,46.582-35.445,19.821-17.944,26.671-26.453,47.18-43.049l79.662-92.577C3393.313,629.81,3290.5,379.835,3290.472,184.428c-.018-100.074,57.1-163.688,139.477-203.507l89.549-35c42.213-14.142,74.192-18.9,74.152-22.076ZM2068.5,1242.772l8.2-8.215Z"/></g></g></g></g></svg>