<?xml version="1.0" encoding="utf-8"?>
<!-- Generator: Adobe Illustrator 25.4.1, SVG Export Plug-In . SVG Version: 6.00 Build 0)  -->
<svg version="1.1" id="Layer_1" xmlns="http://www.w3.org/2000/svg" xmlns:xlink="http://www.w3.org/1999/xlink" x="0px" y="0px"
	 viewBox="0 0 1735.09 1051.92" style="enable-background:new 0 0 1735.09 1051.92;" xml:space="preserve">
<style type="text/css">
	.st0{opacity:0.72;fill-rule:evenodd;clip-rule:evenodd;fill:#464443;}
	.st1{opacity:0.19;fill-rule:evenodd;clip-rule:evenodd;fill:#7B7B7B;}
	.st2{opacity:0.26;fill-rule:evenodd;clip-rule:evenodd;fill:#7B7B7B;}
</style>
<path class="st0" d="M1014.8,493.94v-2.16l2.52,1.8L1014.8,493.94z M1347.54,323.53c-2.77-11.74-17.07-9.65-31.66-20.41
	c-9.7-7.16-14.14-15.19-27.74-24.1c-4.12-2.7-3.86-2.39-8.13-4.77l-8.03-4.79c-34.05-20.42-83.27-19.81-110.71,10.16
	c-1.85,2.02-0.58,0.52-2.68,3.38l-1.7,2.49c-0.26,0.38-0.61,0.91-0.87,1.29l-50.42,76.94l-13.83,19.11
	c-0.69,1.12-3.71,6.22-3.9,6.48l-13.43,19.5c-6.28,9.21-8.3,4.43-19.98-2.09l-46.14-25.19l-58.36-23.79
	c-127.38-51.29-264.91-62.52-402.07-62.69c-33.95-0.04-88.96,6.49-123.21,6.49c3,11.22,58.92,56.08,66.48,63.22l42.46,33.19
	c6.44,4.67,10.11,5.47,14.27,11.68c-9.68,0.22-25.65,5.4-32.43,8.65l23.77,17.3c27.08,18.17,99.14,55.94,130.71,66.18
	c0.69,0.22,2.78,0.86,3.45,1.1c9.33,3.36-1.97-0.9,4.51,1.89c88.46,38.08,215.65,51.72,308.85,4.35
	c8.06-4.09,19.55-12.69,28.07-15.16c-1.89,7.66-49.13,72.48-57.5,85.17l-29.4,41.93c-3.59,5.43-5.8,8.81-9.77,14
	c-3.86,5.03-6.53,8.34-10.14,13.64L857,716.59c9.06-0.2,16.7-4.53,23.76-8.67c5.01-2.94,5.15-3.56,11.1-6.19l53.77-30.54
	l-38.61,84.6c-2.5,6.42-4.04,9.33-6.8,14.81l-60.51,129.73c8.49-2.26,25.71-22.48,32.96-29.73c11.52-11.52,21.77-26.18,31.89-32.96
	c2.04,4.26,3.12,9.98,4.32,15.13c8.15-2.18,5-1.31,12.97-17.29l40.34-80.71c3.63-7.23,5.94-13.72,9.8-20.46l21.19-41.49
	c20.11,0,38.96-4.46,56.69-8.15c52.34-10.89,102.4-27.59,145.61-59.75c4.44-3.3,8.53-5.95,12.28-9.34
	c5.22-4.73,7.03-6.97,12.43-11.34l20.99-24.4c53.57-70.16,26.48-136.04,26.47-187.54c-0.01-26.37,15.05-43.14,36.76-53.63l23.6-9.22
	c11.12-3.73,19.55-4.98,19.54-5.82L1347.54,323.53z M945.63,671.19l2.16-2.16L945.63,671.19z"/>
<path class="st1" d="M1054.53,462.18v-2.59l3.02,2.16L1054.53,462.18z M1453.48,257.86c-3.32-14.08-20.46-11.57-37.97-24.48
	c-11.63-8.58-16.96-18.22-33.25-28.9c-4.94-3.23-4.63-2.86-9.75-5.71l-9.62-5.74c-40.83-24.49-99.85-23.75-132.75,12.18
	c-2.21,2.42-0.69,0.63-3.21,4.05l-2.04,2.98c-0.31,0.45-0.73,1.09-1.05,1.55l-60.46,92.25l-16.58,22.92
	c-0.83,1.34-4.45,7.46-4.68,7.77l-16.1,23.38c-7.53,11.04-9.95,5.31-23.96-2.5l-55.32-30.2l-69.98-28.52
	c-152.73-61.5-317.62-74.96-482.08-75.16c-40.71-0.05-106.66,7.78-147.73,7.78c3.59,13.45,70.64,67.24,79.71,75.8l50.91,39.79
	c7.72,5.6,12.12,6.55,17.11,14c-11.61,0.26-30.75,6.47-38.88,10.37l28.5,20.74c32.47,21.79,118.87,67.07,156.72,79.35
	c0.83,0.27,3.34,1.04,4.13,1.32c11.18,4.03-2.36-1.08,5.4,2.26c106.07,45.66,258.56,62.02,370.31,5.22
	c9.66-4.91,23.44-15.21,33.66-18.18c-2.27,9.18-58.9,86.9-68.95,102.11l-35.25,50.28c-4.31,6.51-6.95,10.57-11.72,16.79
	c-4.63,6.03-7.83,9.99-12.16,16.36l-61.13,81.42c10.86-0.24,20.03-5.43,28.49-10.39c6-3.53,6.18-4.27,13.31-7.42l64.47-36.62
	l-46.3,101.43c-2.99,7.7-4.84,11.18-8.15,17.75L844.6,949.44c10.17-2.71,30.83-26.95,39.52-35.64
	c13.81-13.81,26.1-31.39,38.24-39.52c2.45,5.11,3.74,11.97,5.18,18.14c9.78-2.61,5.99-1.57,15.55-20.74l48.37-96.77
	c4.35-8.67,7.12-16.45,11.75-24.54l25.41-49.75c24.11,0,46.72-5.35,67.98-9.78c62.76-13.06,122.78-33.09,174.58-71.65
	c5.32-3.96,10.23-7.14,14.72-11.2c6.26-5.67,8.43-8.36,14.91-13.6l25.17-29.25c64.23-84.13,31.75-163.11,31.74-224.86
	c-0.01-31.62,18.04-51.72,44.07-64.3l28.3-11.06c13.34-4.47,23.44-5.97,23.43-6.98L1453.48,257.86z M971.59,674.71l2.59-2.6
	L971.59,674.71z"/>
<path class="st2" d="M1060.32,391.49v-3.39l3.95,2.82L1060.32,391.49z M1581.47,124.58c-4.33-18.39-26.73-15.11-49.59-31.97
	c-15.19-11.21-22.15-23.8-43.44-37.75c-6.45-4.23-6.04-3.74-12.74-7.46l-12.57-7.49c-53.34-31.99-130.43-31.03-173.41,15.92
	c-2.89,3.16-0.9,0.82-4.19,5.29l-2.67,3.89c-0.41,0.59-0.96,1.43-1.37,2.02l-78.97,120.51l-21.66,29.94
	c-1.09,1.75-5.81,9.74-6.11,10.15l-21.03,30.55c-9.84,14.42-13,6.94-31.3-3.27l-72.26-39.45l-91.41-37.26
	C759.24,97.85,543.84,80.27,329.01,80c-53.18-0.06-139.33,10.16-192.98,10.16c4.69,17.57,92.28,87.83,104.13,99.02l66.51,51.98
	c10.09,7.31,15.83,8.56,22.35,18.29c-15.16,0.34-40.17,8.45-50.79,13.54l37.23,27.1c42.42,28.46,155.28,87.62,204.72,103.65
	c1.09,0.35,4.36,1.35,5.4,1.73c14.61,5.27-3.08-1.41,7.06,2.96c138.55,59.65,337.76,81.01,483.73,6.82
	c12.62-6.41,30.62-19.87,43.96-23.75c-2.97,11.99-76.94,113.52-90.07,133.39l-46.05,65.68c-5.63,8.51-9.08,13.8-15.31,21.93
	c-6.04,7.88-10.22,13.06-15.88,21.37l-79.85,106.36c14.19-0.31,26.16-7.09,37.21-13.58c7.84-4.6,8.07-5.57,17.39-9.69l84.21-47.83
	l-60.48,132.5c-3.91,10.06-6.33,14.61-10.65,23.19L786.08,1028c13.29-3.55,40.27-35.2,51.62-46.56
	c18.04-18.04,34.09-41.01,49.95-51.62c3.2,6.67,4.89,15.63,6.77,23.7c12.77-3.41,7.83-2.05,20.32-27.09l63.19-126.41
	c5.68-11.32,9.31-21.49,15.35-32.05l33.19-64.99c31.49,0,61.03-6.99,88.8-12.77c81.98-17.06,160.39-43.22,228.06-93.59
	c6.95-5.17,13.36-9.33,19.23-14.63c8.18-7.41,11.01-10.92,19.47-17.77L1414.9,526c83.91-109.89,41.47-213.07,41.46-293.73
	c-0.01-41.31,23.57-67.56,57.57-84l36.96-14.45c17.42-5.84,30.62-7.8,30.61-9.11L1581.47,124.58z M951.98,669.11l3.38-3.39
	L951.98,669.11z"/>
</svg>
