<svg width="21" height="21" viewBox="0 0 21 21" fill="none" xmlns="http://www.w3.org/2000/svg">
<path d="M8.41659 1.95898C8.07021 1.95898 7.75994 2.17326 7.63727 2.49719L7.44594 3.00243C7.03579 2.96144 6.6579 2.92054 6.35199 2.88619C6.12331 2.86052 5.93533 2.83856 5.80475 2.82305L5.65413 2.80497L5.60298 2.79871C5.14623 2.74216 4.72947 3.06649 4.67291 3.52324C4.61635 3.97999 4.94076 4.39611 5.39751 4.45267L5.45317 4.45947L5.60815 4.47808C5.74177 4.49395 5.93333 4.51632 6.16602 4.54245C6.63099 4.59466 7.26207 4.66206 7.92419 4.72248C8.81734 4.80399 9.79636 4.87565 10.4999 4.87565C11.2035 4.87565 12.1825 4.80399 13.0757 4.72248C13.7378 4.66206 14.3689 4.59466 14.8338 4.54245C15.0665 4.51632 15.2581 4.49395 15.3917 4.47808L15.5467 4.45947L15.6022 4.45268C16.059 4.39612 16.3835 3.97999 16.3269 3.52324C16.2704 3.06649 15.8543 2.74208 15.3975 2.79863L15.3457 2.80497L15.1951 2.82305C15.0645 2.83856 14.8765 2.86052 14.6479 2.88619C14.342 2.92054 13.9641 2.96144 13.5539 3.00243L13.3626 2.49719C13.2399 2.17326 12.9296 1.95898 12.5833 1.95898H8.41659Z" fill="#98A2B3"/>
<path d="M9.66659 10.2923C9.66659 9.83208 9.29349 9.45898 8.83326 9.45898C8.37302 9.45898 7.99992 9.83208 7.99992 10.2923V14.459C7.99992 14.9192 8.37302 15.2923 8.83326 15.2923C9.29349 15.2923 9.66659 14.9192 9.66659 14.459V10.2923Z" fill="#98A2B3"/>
<path d="M12.1666 9.45898C12.6268 9.45898 12.9999 9.83208 12.9999 10.2923V14.459C12.9999 14.9192 12.6268 15.2923 12.1666 15.2923C11.7064 15.2923 11.3333 14.9192 11.3333 14.459V10.2923C11.3333 9.83208 11.7064 9.45898 12.1666 9.45898Z" fill="#98A2B3"/>
<path fill-rule="evenodd" clip-rule="evenodd" d="M16.258 7.20945C16.3335 6.15214 15.4219 5.30451 14.386 5.42423C13.326 5.54674 11.6902 5.70898 10.4999 5.70898C9.30964 5.70898 7.67387 5.54674 6.61385 5.42423C5.57791 5.30451 4.66636 6.15214 4.74188 7.20945L5.45583 17.2047C5.50995 17.9624 6.07431 18.603 6.84879 18.7194C7.6793 18.8443 9.20321 19.0438 10.5009 19.0423C11.7826 19.0408 13.3127 18.8422 14.1469 18.7184C14.9227 18.6034 15.4899 17.9623 15.5442 17.2024L16.258 7.20945ZM14.5773 7.07988C14.5802 7.07955 14.5824 7.07974 14.5824 7.07974L14.5846 7.08025C14.5865 7.08089 14.5894 7.08241 14.5923 7.08513C14.5942 7.08693 14.5956 7.08913 14.5956 7.08913L14.5955 7.0907L13.8825 17.0728C13.057 17.1948 11.642 17.3743 10.499 17.3757C9.3435 17.377 7.93732 17.1972 7.11744 17.0744L6.40431 7.0907L6.40425 7.08913C6.40425 7.08913 6.40567 7.08693 6.40757 7.08513C6.41044 7.08241 6.41335 7.08089 6.4152 7.08025L6.4174 7.07974C6.4174 7.07974 6.41962 7.07955 6.42251 7.07988C7.48441 7.2026 9.20446 7.37565 10.4999 7.37565C11.7954 7.37565 13.5154 7.2026 14.5773 7.07988Z" fill="#98A2B3"/>
</svg>
