<svg width="15" height="14" viewBox="0 0 15 14" fill="none" xmlns="http://www.w3.org/2000/svg">
<path d="M5.75 8.75C5.75 7.1001 5.75 6.27515 6.26256 5.76256C6.77515 5.25 7.6001 5.25 9.25 5.25H9.83333C11.4832 5.25 12.3082 5.25 12.8208 5.76256C13.3333 6.27515 13.3333 7.1001 13.3333 8.75V9.33333C13.3333 10.9832 13.3333 11.8082 12.8208 12.3208C12.3082 12.8333 11.4832 12.8333 9.83333 12.8333H9.25C7.6001 12.8333 6.77515 12.8333 6.26256 12.3208C5.75 11.8082 5.75 10.9832 5.75 9.33333V8.75Z" stroke="#98A2B3" stroke-linecap="round" stroke-linejoin="round"/>
<path d="M10.4167 5.24935C10.4153 3.52438 10.3892 2.63089 9.88708 2.0191C9.79013 1.90095 9.68181 1.79262 9.56368 1.69566C8.91828 1.16602 7.95946 1.16602 6.04175 1.16602C4.12405 1.16602 3.1652 1.16602 2.51983 1.69566C2.40168 1.79261 2.29335 1.90095 2.19639 2.0191C1.66675 2.66447 1.66675 3.62332 1.66675 5.54102C1.66675 7.45872 1.66675 8.41755 2.19639 9.06295C2.29335 9.18107 2.40168 9.2894 2.51983 9.38635C3.13162 9.88848 4.02511 9.91456 5.75008 9.91596" stroke="#98A2B3" stroke-linecap="round" stroke-linejoin="round"/>
</svg>
