<svg width="15" height="14" viewBox="0 0 15 14" fill="none" xmlns="http://www.w3.org/2000/svg">
<path d="M10.3851 1.8503C10.7277 1.50772 10.899 1.33644 11.0887 1.25453C11.3621 1.13651 11.6721 1.13651 11.9455 1.25453C12.1352 1.33644 12.3065 1.50772 12.649 1.8503C12.9916 2.19287 13.1629 2.36415 13.2448 2.55391C13.3629 2.82729 13.3629 3.13724 13.2448 3.41062C13.1629 3.60038 12.9916 3.77166 12.649 4.11424L9.71982 7.04351C8.99812 7.76521 8.63727 8.12606 8.1853 8.33985C7.73333 8.55364 7.22548 8.60375 6.2098 8.70397L5.75 8.74935L5.79537 8.28957C5.89559 7.27387 5.9457 6.76602 6.15951 6.31405C6.37329 5.86208 6.73414 5.50125 7.45584 4.77956L10.3851 1.8503Z" stroke="#98A2B3" stroke-linejoin="round"/>
<path d="M4.00008 8.75H2.68758C2.12379 8.75 1.66675 9.20704 1.66675 9.77083C1.66675 10.3346 2.12379 10.7917 2.68758 10.7917H8.22925C8.79304 10.7917 9.25008 11.2487 9.25008 11.8125C9.25008 12.3763 8.79304 12.8333 8.22925 12.8333H6.91675" stroke="#98A2B3" stroke-linecap="round" stroke-linejoin="round"/>
</svg>
