<svg width="92" height="25" viewBox="0 0 92 25" fill="none" xmlns="http://www.w3.org/2000/svg">
<path d="M4.39489 17.1298C3.75852 17.1298 3.19673 16.969 2.70952 16.6475C2.2223 16.3227 1.84115 15.8654 1.56605 15.2754C1.29096 14.6821 1.15341 13.9811 1.15341 13.1724C1.15341 12.3703 1.29096 11.6743 1.56605 11.0843C1.84115 10.4944 2.22396 10.0386 2.71449 9.71715C3.20502 9.39566 3.77178 9.23491 4.41477 9.23491C4.91193 9.23491 5.30469 9.31777 5.59304 9.48349C5.88471 9.64589 6.10677 9.8315 6.25923 10.0403C6.41501 10.2458 6.53599 10.4148 6.62216 10.5474H6.72159V9.33434H7.89489V16.9707H6.76136V15.7974H6.62216C6.53599 15.9366 6.41335 16.1123 6.25426 16.3244C6.09517 16.5332 5.86813 16.7205 5.57315 16.8862C5.27817 17.0486 4.88542 17.1298 4.39489 17.1298ZM4.55398 16.0758C5.02462 16.0758 5.42235 15.9532 5.74716 15.7079C6.07197 15.4593 6.31889 15.1163 6.48793 14.6788C6.65696 14.238 6.74148 13.7292 6.74148 13.1525C6.74148 12.5824 6.65862 12.0836 6.4929 11.6561C6.32718 11.2252 6.08191 10.8904 5.7571 10.6518C5.43229 10.4099 5.03125 10.2889 4.55398 10.2889C4.05682 10.2889 3.64252 10.4165 3.31108 10.6717C2.98295 10.9236 2.73603 11.2666 2.57031 11.7008C2.40791 12.1317 2.3267 12.6156 2.3267 13.1525C2.3267 13.6961 2.40956 14.1899 2.57528 14.6341C2.74432 15.0749 2.9929 15.4262 3.32102 15.688C3.65246 15.9466 4.06345 16.0758 4.55398 16.0758ZM5.60795 6.80877H6.7017C6.7017 7.23633 6.51941 7.58931 6.15483 7.86772C5.79025 8.14281 5.28977 8.28036 4.65341 8.28036C4.02699 8.28036 3.52817 8.14281 3.15696 7.86772C2.78906 7.58931 2.60511 7.23633 2.60511 6.80877H3.69886C3.69886 7.01758 3.77012 7.20318 3.91264 7.36559C4.05848 7.52468 4.3054 7.60423 4.65341 7.60423C5.00142 7.60423 5.24669 7.52468 5.3892 7.36559C5.53504 7.20318 5.60795 7.01758 5.60795 6.80877ZM6.04545 4.80025L6.64205 4.97923C6.64205 5.31729 6.53433 5.6073 6.31889 5.84925C6.10346 6.0912 5.8267 6.21218 5.48864 6.21218C5.24337 6.21218 5.04616 6.17075 4.89702 6.08789C4.74787 6.00503 4.60701 5.92217 4.47443 5.83931C4.34186 5.75645 4.17614 5.71502 3.97727 5.71502C3.82812 5.71502 3.70052 5.77302 3.59446 5.88903C3.49171 6.00172 3.44034 6.14258 3.44034 6.31161L2.82386 6.17241C2.82386 5.84428 2.93158 5.55096 3.14702 5.29244C3.36245 5.0306 3.6392 4.89968 3.97727 4.89968C4.12642 4.89968 4.26231 4.92454 4.38494 4.97425C4.50758 5.02397 4.62524 5.08197 4.73793 5.14826C4.85393 5.21455 4.97159 5.27255 5.09091 5.32227C5.21354 5.37198 5.34612 5.39684 5.48864 5.39684C5.63778 5.39684 5.76705 5.34049 5.87642 5.22781C5.98911 5.1118 6.04545 4.96928 6.04545 4.80025Z" fill="#F8872B"/>
<path d="M23.7855 17.1298C23.1491 17.1298 22.5874 16.969 22.1001 16.6475C21.6129 16.3227 21.2318 15.8654 20.9567 15.2754C20.6816 14.6821 20.544 13.9811 20.544 13.1724C20.544 12.3703 20.6816 11.6743 20.9567 11.0843C21.2318 10.4944 21.6146 10.0386 22.1051 9.71715C22.5956 9.39566 23.1624 9.23491 23.8054 9.23491C24.3026 9.23491 24.6953 9.31777 24.9837 9.48349C25.2753 9.64589 25.4974 9.8315 25.6499 10.0403C25.8056 10.2458 25.9266 10.4148 26.0128 10.5474H26.1122V9.33434H27.2855V16.9707H26.152V15.7974H26.0128C25.9266 15.9366 25.804 16.1123 25.6449 16.3244C25.4858 16.5332 25.2588 16.7205 24.9638 16.8862C24.6688 17.0486 24.276 17.1298 23.7855 17.1298ZM23.9446 16.0758C24.4152 16.0758 24.813 15.9532 25.1378 15.7079C25.4626 15.4593 25.7095 15.1163 25.8786 14.6788C26.0476 14.238 26.1321 13.7292 26.1321 13.1525C26.1321 12.5824 26.0492 12.0836 25.8835 11.6561C25.7178 11.2252 25.4725 10.8904 25.1477 10.6518C24.8229 10.4099 24.4219 10.2889 23.9446 10.2889C23.4474 10.2889 23.0331 10.4165 22.7017 10.6717C22.3736 10.9236 22.1267 11.2666 21.9609 11.7008C21.7985 12.1317 21.7173 12.6156 21.7173 13.1525C21.7173 13.6961 21.8002 14.1899 21.9659 14.6341C22.1349 15.0749 22.3835 15.4262 22.7116 15.688C23.0431 15.9466 23.4541 16.0758 23.9446 16.0758ZM24.9986 6.80877H26.0923C26.0923 7.23633 25.91 7.58931 25.5455 7.86772C25.1809 8.14281 24.6804 8.28036 24.044 8.28036C23.4176 8.28036 22.9188 8.14281 22.5476 7.86772C22.1797 7.58931 21.9957 7.23633 21.9957 6.80877H23.0895C23.0895 7.01758 23.1607 7.20318 23.3033 7.36559C23.4491 7.52468 23.696 7.60423 24.044 7.60423C24.392 7.60423 24.6373 7.52468 24.7798 7.36559C24.9257 7.20318 24.9986 7.01758 24.9986 6.80877ZM25.4361 4.80025L26.0327 4.97923C26.0327 5.31729 25.925 5.6073 25.7095 5.84925C25.4941 6.0912 25.2173 6.21218 24.8793 6.21218C24.634 6.21218 24.4368 6.17075 24.2876 6.08789C24.1385 6.00503 23.9976 5.92217 23.8651 5.83931C23.7325 5.75645 23.5668 5.71502 23.3679 5.71502C23.2188 5.71502 23.0911 5.77302 22.9851 5.88903C22.8823 6.00172 22.831 6.14258 22.831 6.31161L22.2145 6.17241C22.2145 5.84428 22.3222 5.55096 22.5376 5.29244C22.7531 5.0306 23.0298 4.89968 23.3679 4.89968C23.517 4.89968 23.6529 4.92454 23.7756 4.97425C23.8982 5.02397 24.0159 5.08197 24.1286 5.14826C24.2446 5.21455 24.3622 5.27255 24.4815 5.32227C24.6042 5.37198 24.7367 5.39684 24.8793 5.39684C25.0284 5.39684 25.1577 5.34049 25.267 5.22781C25.3797 5.1118 25.4361 4.96928 25.4361 4.80025Z" fill="#F8872B"/>
<path d="M43.1761 17.1298C42.5398 17.1298 41.978 16.969 41.4908 16.6475C41.0036 16.3227 40.6224 15.8654 40.3473 15.2754C40.0722 14.6821 39.9347 13.9811 39.9347 13.1724C39.9347 12.3703 40.0722 11.6743 40.3473 11.0843C40.6224 10.4944 41.0052 10.0386 41.4957 9.71715C41.9863 9.39566 42.553 9.23491 43.196 9.23491C43.6932 9.23491 44.0859 9.31777 44.3743 9.48349C44.666 9.64589 44.888 9.8315 45.0405 10.0403C45.1963 10.2458 45.3172 10.4148 45.4034 10.5474H45.5028V9.33434H46.6761V16.9707H45.5426V15.7974H45.4034C45.3172 15.9366 45.1946 16.1123 45.0355 16.3244C44.8764 16.5332 44.6494 16.7205 44.3544 16.8862C44.0594 17.0486 43.6667 17.1298 43.1761 17.1298ZM43.3352 16.0758C43.8059 16.0758 44.2036 15.9532 44.5284 15.7079C44.8532 15.4593 45.1001 15.1163 45.2692 14.6788C45.4382 14.238 45.5227 13.7292 45.5227 13.1525C45.5227 12.5824 45.4399 12.0836 45.2741 11.6561C45.1084 11.2252 44.8632 10.8904 44.5384 10.6518C44.2135 10.4099 43.8125 10.2889 43.3352 10.2889C42.8381 10.2889 42.4238 10.4165 42.0923 10.6717C41.7642 10.9236 41.5173 11.2666 41.3516 11.7008C41.1892 12.1317 41.108 12.6156 41.108 13.1525C41.108 13.6961 41.1908 14.1899 41.3565 14.6341C41.5256 15.0749 41.7741 15.4262 42.1023 15.688C42.4337 15.9466 42.8447 16.0758 43.3352 16.0758ZM44.3892 6.80877H45.483C45.483 7.23633 45.3007 7.58931 44.9361 7.86772C44.5715 8.14281 44.071 8.28036 43.4347 8.28036C42.8082 8.28036 42.3094 8.14281 41.9382 7.86772C41.5703 7.58931 41.3864 7.23633 41.3864 6.80877H42.4801C42.4801 7.01758 42.5514 7.20318 42.6939 7.36559C42.8397 7.52468 43.0866 7.60423 43.4347 7.60423C43.7827 7.60423 44.0279 7.52468 44.1705 7.36559C44.3163 7.20318 44.3892 7.01758 44.3892 6.80877ZM44.8267 4.80025L45.4233 4.97923C45.4233 5.31729 45.3156 5.6073 45.1001 5.84925C44.8847 6.0912 44.608 6.21218 44.2699 6.21218C44.0246 6.21218 43.8274 6.17075 43.6783 6.08789C43.5291 6.00503 43.3883 5.92217 43.2557 5.83931C43.1231 5.75645 42.9574 5.71502 42.7585 5.71502C42.6094 5.71502 42.4818 5.77302 42.3757 5.88903C42.273 6.00172 42.2216 6.14258 42.2216 6.31161L41.6051 6.17241C41.6051 5.84428 41.7128 5.55096 41.9283 5.29244C42.1437 5.0306 42.4205 4.89968 42.7585 4.89968C42.9077 4.89968 43.0436 4.92454 43.1662 4.97425C43.2888 5.02397 43.4065 5.08197 43.5192 5.14826C43.6352 5.21455 43.7528 5.27255 43.8722 5.32227C43.9948 5.37198 44.1274 5.39684 44.2699 5.39684C44.419 5.39684 44.5483 5.34049 44.6577 5.22781C44.7704 5.1118 44.8267 4.96928 44.8267 4.80025Z" fill="#F8872B"/>
<path d="M62.5668 17.1298C61.9304 17.1298 61.3686 16.969 60.8814 16.6475C60.3942 16.3227 60.013 15.8654 59.7379 15.2754C59.4628 14.6821 59.3253 13.9811 59.3253 13.1724C59.3253 12.3703 59.4628 11.6743 59.7379 11.0843C60.013 10.4944 60.3958 10.0386 60.8864 9.71715C61.3769 9.39566 61.9437 9.23491 62.5866 9.23491C63.0838 9.23491 63.4766 9.31777 63.7649 9.48349C64.0566 9.64589 64.2786 9.8315 64.4311 10.0403C64.5869 10.2458 64.7079 10.4148 64.794 10.5474H64.8935V9.33434H66.0668V16.9707H64.9332V15.7974H64.794C64.7079 15.9366 64.5852 16.1123 64.4261 16.3244C64.267 16.5332 64.04 16.7205 63.745 16.8862C63.45 17.0486 63.0573 17.1298 62.5668 17.1298ZM62.7259 16.0758C63.1965 16.0758 63.5942 15.9532 63.919 15.7079C64.2438 15.4593 64.4908 15.1163 64.6598 14.6788C64.8288 14.238 64.9134 13.7292 64.9134 13.1525C64.9134 12.5824 64.8305 12.0836 64.6648 11.6561C64.4991 11.2252 64.2538 10.8904 63.929 10.6518C63.6042 10.4099 63.2031 10.2889 62.7259 10.2889C62.2287 10.2889 61.8144 10.4165 61.483 10.6717C61.1548 10.9236 60.9079 11.2666 60.7422 11.7008C60.5798 12.1317 60.4986 12.6156 60.4986 13.1525C60.4986 13.6961 60.5814 14.1899 60.7472 14.6341C60.9162 15.0749 61.1648 15.4262 61.4929 15.688C61.8243 15.9466 62.2353 16.0758 62.7259 16.0758ZM63.7798 6.80877H64.8736C64.8736 7.23633 64.6913 7.58931 64.3267 7.86772C63.9621 8.14281 63.4616 8.28036 62.8253 8.28036C62.1989 8.28036 61.7 8.14281 61.3288 7.86772C60.9609 7.58931 60.777 7.23633 60.777 6.80877H61.8707C61.8707 7.01758 61.942 7.20318 62.0845 7.36559C62.2304 7.52468 62.4773 7.60423 62.8253 7.60423C63.1733 7.60423 63.4186 7.52468 63.5611 7.36559C63.7069 7.20318 63.7798 7.01758 63.7798 6.80877ZM64.2173 4.80025L64.8139 4.97923C64.8139 5.31729 64.7062 5.6073 64.4908 5.84925C64.2753 6.0912 63.9986 6.21218 63.6605 6.21218C63.4152 6.21218 63.218 6.17075 63.0689 6.08789C62.9197 6.00503 62.7789 5.92217 62.6463 5.83931C62.5137 5.75645 62.348 5.71502 62.1491 5.71502C62 5.71502 61.8724 5.77302 61.7663 5.88903C61.6636 6.00172 61.6122 6.14258 61.6122 6.31161L60.9957 6.17241C60.9957 5.84428 61.1035 5.55096 61.3189 5.29244C61.5343 5.0306 61.8111 4.89968 62.1491 4.89968C62.2983 4.89968 62.4342 4.92454 62.5568 4.97425C62.6795 5.02397 62.7971 5.08197 62.9098 5.14826C63.0258 5.21455 63.1435 5.27255 63.2628 5.32227C63.3854 5.37198 63.518 5.39684 63.6605 5.39684C63.8097 5.39684 63.9389 5.34049 64.0483 5.22781C64.161 5.1118 64.2173 4.96928 64.2173 4.80025Z" fill="#F8872B"/>
<path d="M81.9574 17.1298C81.321 17.1298 80.7592 16.969 80.272 16.6475C79.7848 16.3227 79.4036 15.8654 79.1286 15.2754C78.8535 14.6821 78.7159 13.9811 78.7159 13.1724C78.7159 12.3703 78.8535 11.6743 79.1286 11.0843C79.4036 10.4944 79.7865 10.0386 80.277 9.71715C80.7675 9.39566 81.3343 9.23491 81.9773 9.23491C82.4744 9.23491 82.8672 9.31777 83.1555 9.48349C83.4472 9.64589 83.6693 9.8315 83.8217 10.0403C83.9775 10.2458 84.0985 10.4148 84.1847 10.5474H84.2841V9.33434H85.4574V16.9707H84.3239V15.7974H84.1847C84.0985 15.9366 83.9759 16.1123 83.8168 16.3244C83.6577 16.5332 83.4306 16.7205 83.1357 16.8862C82.8407 17.0486 82.4479 17.1298 81.9574 17.1298ZM82.1165 16.0758C82.5871 16.0758 82.9848 15.9532 83.3097 15.7079C83.6345 15.4593 83.8814 15.1163 84.0504 14.6788C84.2195 14.238 84.304 13.7292 84.304 13.1525C84.304 12.5824 84.2211 12.0836 84.0554 11.6561C83.8897 11.2252 83.6444 10.8904 83.3196 10.6518C82.9948 10.4099 82.5938 10.2889 82.1165 10.2889C81.6193 10.2889 81.205 10.4165 80.8736 10.6717C80.5455 10.9236 80.2985 11.2666 80.1328 11.7008C79.9704 12.1317 79.8892 12.6156 79.8892 13.1525C79.8892 13.6961 79.9721 14.1899 80.1378 14.6341C80.3068 15.0749 80.5554 15.4262 80.8835 15.688C81.215 15.9466 81.6259 16.0758 82.1165 16.0758ZM83.1705 6.80877H84.2642C84.2642 7.23633 84.0819 7.58931 83.7173 7.86772C83.3527 8.14281 82.8523 8.28036 82.2159 8.28036C81.5895 8.28036 81.0907 8.14281 80.7195 7.86772C80.3516 7.58931 80.1676 7.23633 80.1676 6.80877H81.2614C81.2614 7.01758 81.3326 7.20318 81.4751 7.36559C81.621 7.52468 81.8679 7.60423 82.2159 7.60423C82.5639 7.60423 82.8092 7.52468 82.9517 7.36559C83.0975 7.20318 83.1705 7.01758 83.1705 6.80877ZM83.608 4.80025L84.2045 4.97923C84.2045 5.31729 84.0968 5.6073 83.8814 5.84925C83.666 6.0912 83.3892 6.21218 83.0511 6.21218C82.8059 6.21218 82.6087 6.17075 82.4595 6.08789C82.3104 6.00503 82.1695 5.92217 82.0369 5.83931C81.9044 5.75645 81.7386 5.71502 81.5398 5.71502C81.3906 5.71502 81.263 5.77302 81.157 5.88903C81.0542 6.00172 81.0028 6.14258 81.0028 6.31161L80.3864 6.17241C80.3864 5.84428 80.4941 5.55096 80.7095 5.29244C80.925 5.0306 81.2017 4.89968 81.5398 4.89968C81.6889 4.89968 81.8248 4.92454 81.9474 4.97425C82.0701 5.02397 82.1877 5.08197 82.3004 5.14826C82.4164 5.21455 82.5341 5.27255 82.6534 5.32227C82.776 5.37198 82.9086 5.39684 83.0511 5.39684C83.2003 5.39684 83.3295 5.34049 83.4389 5.22781C83.5516 5.1118 83.608 4.96928 83.608 4.80025Z" fill="#F8872B"/>
</svg>
