<svg width="57" height="57" viewBox="0 0 57 57" fill="none" xmlns="http://www.w3.org/2000/svg">
<circle cx="28.5" cy="28.5" r="28" fill="#F0F2F5"/>
<path d="M21.5001 25.584C21.5001 22.0402 24.3729 19.1673 27.9167 19.1673C31.0559 19.1673 33.6708 21.4227 34.2249 24.4018C34.3027 24.8195 34.6014 25.162 35.0047 25.2958C37.3272 26.0661 39.0001 28.2562 39.0001 30.834C39.0001 34.0556 36.3884 36.6673 33.1667 36.6673C32.5224 36.6673 32.0001 37.1897 32.0001 37.834C32.0001 38.4783 32.5224 39.0007 33.1667 39.0007C37.6771 39.0007 41.3334 35.3443 41.3334 30.834C41.3334 27.4594 39.2874 24.5655 36.3708 23.3202C35.3727 19.585 31.9671 16.834 27.9167 16.834C23.0843 16.834 19.1667 20.7515 19.1667 25.584C19.1667 25.701 19.1691 25.8175 19.1736 25.9335C17.079 27.1419 15.6667 29.4053 15.6667 32.0007C15.6667 35.8666 18.8008 39.0007 22.6667 39.0007C23.3111 39.0007 23.8334 38.4783 23.8334 37.834C23.8334 37.1897 23.3111 36.6673 22.6667 36.6673C20.0894 36.6673 18.0001 34.578 18.0001 32.0007C18.0001 30.0671 19.1763 28.4055 20.8568 27.6976C21.3432 27.4928 21.6314 26.987 21.5598 26.4642C21.5205 26.177 21.5001 25.8832 21.5001 25.584Z" fill="#475367"/>
<path d="M27.725 31.1287C28.167 30.7358 28.8331 30.7358 29.2752 31.1287L31.0252 32.6842C31.5068 33.1123 31.5501 33.8497 31.1221 34.3313C30.7476 34.7526 30.1363 34.8385 29.6667 34.5668V40.1673C29.6667 40.8117 29.1444 41.334 28.5001 41.334C27.8557 41.334 27.3334 40.8117 27.3334 40.1673V34.5668C26.8638 34.8385 26.2526 34.7526 25.8781 34.3313C25.45 33.8497 25.4934 33.1123 25.975 32.6842L27.725 31.1287Z" fill="#475367"/>
</svg>
