<svg width="18" height="18" viewBox="0 0 18 18" fill="none" xmlns="http://www.w3.org/2000/svg">
<path d="M15.0124 14.5589L16.0677 12.622C16.3582 12.0886 16.5036 11.8219 16.4999 11.5332C16.4963 11.2445 16.3442 10.9815 16.0402 10.4553L11.9586 3.39222C11.6366 2.83502 11.4757 2.55642 11.2073 2.40321C10.9389 2.25 10.612 2.25 9.95797 2.25H8.04203C7.38806 2.25 7.06106 2.25 6.79271 2.40321C6.52435 2.55642 6.36335 2.83502 6.04136 3.39222L1.9598 10.4553C1.65575 10.9815 1.50373 11.2445 1.50007 11.5332C1.49641 11.8219 1.64171 12.0886 1.93232 12.622L2.98763 14.5589C3.30384 15.1392 3.46194 15.4294 3.73491 15.5896C4.00788 15.75 4.34385 15.75 5.01579 15.75H12.9842C13.6561 15.75 13.9921 15.75 14.2651 15.5896C14.5381 15.4294 14.6962 15.1392 15.0124 14.5589Z" stroke="#E5E7EB" stroke-width="1.5" stroke-linecap="round" stroke-linejoin="round"/>
<path d="M6.75 3L12 11.25" stroke="#E5E7EB" stroke-width="1.5" stroke-linecap="round" stroke-linejoin="round"/>
<path d="M4.125 15.375L9 6.75" stroke="#E5E7EB" stroke-width="1.5" stroke-linecap="round" stroke-linejoin="round"/>
<path d="M15.75 11.25H6.75" stroke="#E5E7EB" stroke-width="1.5" stroke-linecap="round" stroke-linejoin="round"/>
</svg>
