<svg width="14" height="16" viewBox="0 0 14 16" fill="none" xmlns="http://www.w3.org/2000/svg">
<path d="M10.6889 7.73534C10.7757 7.7476 10.8592 7.77686 10.9347 7.82144C11.0101 7.86603 11.0761 7.92505 11.1287 7.99515C11.1814 8.06525 11.2197 8.14504 11.2414 8.22995C11.2632 8.31486 11.268 8.40324 11.2555 8.49001C11.0884 9.64602 10.5466 10.7153 9.71329 11.5337C8.87993 12.3521 7.80106 12.8745 6.64221 13.0207V13.7287C6.64221 13.9055 6.57197 14.0751 6.44695 14.2001C6.32192 14.3251 6.15236 14.3953 5.97554 14.3953C5.79873 14.3953 5.62916 14.3251 5.50414 14.2001C5.37912 14.0751 5.30888 13.9055 5.30888 13.7287V13.0207C4.15019 12.8743 3.07153 12.3518 2.23832 11.5334C1.40512 10.715 0.863385 9.64588 0.696211 8.49001C0.671103 8.31496 0.71656 8.13712 0.822581 7.99559C0.928601 7.85406 1.0865 7.76045 1.26154 7.73534C1.43659 7.71023 1.61443 7.75569 1.75596 7.86171C1.89749 7.96773 1.9911 8.12563 2.01621 8.30067C2.15409 9.2524 2.63017 10.1226 3.35728 10.752C4.0844 11.3813 5.01388 11.7277 5.97554 11.7277C6.93721 11.7277 7.86669 11.3813 8.5938 10.752C9.32092 10.1226 9.797 9.2524 9.93488 8.30067C9.9473 8.214 9.97667 8.13061 10.0213 8.05529C10.066 7.97997 10.125 7.91418 10.1951 7.86168C10.2652 7.80918 10.3449 7.771 10.4298 7.74933C10.5146 7.72765 10.6022 7.7229 10.6889 7.73534ZM5.97554 1.06201C6.52154 1.06201 7.03688 1.19334 7.49154 1.42601C7.18977 1.63827 6.95259 1.92987 6.80625 2.26855C6.6599 2.60723 6.61009 2.97979 6.66233 3.34502C6.71456 3.71025 6.86681 4.05392 7.10222 4.338C7.33763 4.62208 7.64704 4.83551 7.99621 4.95467L8.24821 5.04134C8.34449 5.07419 8.43197 5.12864 8.50396 5.20051C8.57595 5.27238 8.63054 5.35978 8.66354 5.45601L8.74954 5.70801C8.86288 6.04134 9.05888 6.32934 9.30888 6.55267V7.72867C9.30888 8.61273 8.95769 9.46058 8.33257 10.0857C7.70745 10.7108 6.8596 11.062 5.97554 11.062C5.09149 11.062 4.24364 10.7108 3.61852 10.0857C2.9934 9.46058 2.64221 8.61273 2.64221 7.72867V4.39534C2.64221 3.51129 2.9934 2.66344 3.61852 2.03832C4.24364 1.4132 5.09149 1.06201 5.97554 1.06201ZM10.6422 0.39534C10.7669 0.39534 10.8892 0.430325 10.995 0.496321C11.1008 0.562316 11.186 0.656675 11.2409 0.768673L11.2729 0.846673L11.3595 1.09867C11.451 1.3668 11.5984 1.61243 11.7919 1.8193C11.9855 2.02618 12.2208 2.18957 12.4822 2.29867L12.6055 2.34534L12.8575 2.43134C12.9823 2.47391 13.0917 2.55254 13.1718 2.65727C13.2519 2.762 13.2992 2.88814 13.3076 3.01972C13.316 3.15131 13.2852 3.28244 13.2191 3.39653C13.153 3.51062 13.0546 3.60254 12.9362 3.66067L12.8575 3.69267L12.6055 3.77934C12.3374 3.87081 12.0918 4.01819 11.8849 4.21174C11.678 4.40528 11.5146 4.64056 11.4055 4.90201L11.3589 5.02534L11.2729 5.27734C11.2302 5.4021 11.1515 5.51141 11.0468 5.59145C10.942 5.67149 10.8159 5.71867 10.6843 5.72702C10.5527 5.73537 10.4216 5.70451 10.3075 5.63835C10.1935 5.5722 10.1016 5.47371 10.0435 5.35534L10.0115 5.27734L9.92488 5.02534C9.83341 4.75722 9.68602 4.51159 9.49248 4.30471C9.29894 4.09784 9.06365 3.93444 8.80221 3.82534L8.67888 3.77867L8.42688 3.69267C8.30208 3.6501 8.19272 3.57147 8.11261 3.46674C8.0325 3.36201 7.98525 3.23588 7.97683 3.10429C7.96841 2.9727 7.9992 2.84157 8.0653 2.72749C8.13141 2.6134 8.22986 2.52147 8.34821 2.46334L8.42688 2.43134L8.67888 2.34467C8.947 2.25321 9.19263 2.10582 9.39951 1.91228C9.60638 1.71874 9.76978 1.48345 9.87888 1.22201L9.92554 1.09867L10.0115 0.846673C10.0565 0.715065 10.1414 0.600797 10.2545 0.519866C10.3676 0.438936 10.5031 0.395395 10.6422 0.39534Z" fill="#F3F3F3"/>
</svg>
