<svg width="28" height="28" viewBox="0 0 28 28" fill="none" xmlns="http://www.w3.org/2000/svg">
<path d="M8.226 6.57608C7.77039 6.12047 7.0317 6.12047 6.57608 6.57608C6.12047 7.0317 6.12047 7.77039 6.57608 8.226L12.3508 14.0007L6.57608 19.7754C6.12047 20.231 6.12047 20.9697 6.57608 21.4253C7.0317 21.8809 7.77039 21.8809 8.226 21.4253L14.0007 15.6506L19.7754 21.4253C20.231 21.8809 20.9697 21.8809 21.4253 21.4253C21.8809 20.9697 21.8809 20.231 21.4253 19.7754L15.6506 14.0007L21.4253 8.226C21.8809 7.77039 21.8809 7.0317 21.4253 6.57608C20.9697 6.12047 20.231 6.12047 19.7754 6.57608L14.0007 12.3508L8.226 6.57608Z" fill="#98A2B3"/>
</svg>
