<svg width="45" height="46" viewBox="0 0 45 46" fill="none" xmlns="http://www.w3.org/2000/svg">
<g clip-path="url(#clip0_764_2267)">
<path fill-rule="evenodd" clip-rule="evenodd" d="M5.42945 0.599609C4.54803 0.599609 3.8335 1.31414 3.8335 2.19556V43.8037C3.8335 44.6851 4.54803 45.3996 5.42945 45.3996H39.5709C40.4523 45.3996 41.1668 44.6851 41.1668 43.8037V2.19556C41.1668 2.19353 41.1668 2.19149 41.1668 2.18945V8.06628L33.7001 0.599609H5.42945Z" fill="#E4E7EC"/>
<path fill-rule="evenodd" clip-rule="evenodd" d="M33.7002 0.599609V8.06628H41.1669L33.7002 0.599609Z" fill="#98A2B3"/>
<rect x="1.9668" y="19.2656" width="41.0667" height="18.6667" rx="1.59595" fill="#CC400C"/>
<path d="M10.792 33.2426V23.957H14.2741C14.9874 23.957 15.5859 24.09 16.0695 24.356C16.5562 24.622 16.9234 24.9878 17.1713 25.4532C17.4222 25.9157 17.5476 26.4416 17.5476 27.0311C17.5476 27.6265 17.4222 28.1555 17.1713 28.6179C16.9204 29.0804 16.5501 29.4446 16.0605 29.7106C15.5708 29.9736 14.9678 30.1051 14.2514 30.1051H11.9436V28.7222H14.0247C14.4418 28.7222 14.7834 28.6497 15.0494 28.5046C15.3154 28.3595 15.5118 28.16 15.6388 27.9061C15.7688 27.6522 15.8338 27.3605 15.8338 27.0311C15.8338 26.7016 15.7688 26.4114 15.6388 26.1605C15.5118 25.9097 15.3139 25.7147 15.0448 25.5757C14.7789 25.4336 14.4358 25.3626 14.0156 25.3626H12.4741V33.2426H10.792Z" fill="white"/>
<path d="M22.1552 33.2426H19.0087V23.957H22.2187C23.1406 23.957 23.9325 24.1429 24.5945 24.5147C25.2595 24.8835 25.7703 25.4139 26.127 26.1061C26.4836 26.7983 26.662 27.6265 26.662 28.5907C26.662 29.558 26.4821 30.3892 26.1224 31.0844C25.7658 31.7796 25.2504 32.3131 24.5764 32.6849C23.9053 33.0567 23.0983 33.2426 22.1552 33.2426ZM20.6908 31.7872H22.0736C22.7205 31.7872 23.26 31.6693 23.6922 31.4335C24.1245 31.1947 24.4494 30.8396 24.667 30.368C24.8847 29.8935 24.9935 29.3011 24.9935 28.5907C24.9935 27.8804 24.8847 27.291 24.667 26.8225C24.4494 26.351 24.1275 25.9988 23.7013 25.7661C23.2781 25.5303 22.7522 25.4124 22.1235 25.4124H20.6908V31.7872Z" fill="white"/>
<path d="M28.2602 33.2426V23.957H34.2088V25.3671H29.9423V27.888H33.8007V29.298H29.9423V33.2426H28.2602Z" fill="white"/>
</g>
<defs>
<clipPath id="clip0_764_2267">
<rect width="44.8" height="44.8" fill="white" transform="translate(0.100098 0.599609)"/>
</clipPath>
</defs>
</svg>
