<svg width="38" height="38" viewBox="0 0 38 38" fill="none" xmlns="http://www.w3.org/2000/svg">
<rect x="0.5" y="0.5" width="37.0001" height="37.0001" rx="18.5" stroke="white"/>
<path d="M17.3636 10C15.9072 10 14.4835 10.4319 13.2726 11.241C12.0617 12.0501 11.1179 13.2001 10.5605 14.5457C10.0032 15.8912 9.85737 17.3718 10.1415 18.8002C10.4256 20.2286 11.1269 21.5406 12.1568 22.5704C13.1866 23.6003 14.4986 24.3016 15.927 24.5857C17.3554 24.8698 18.836 24.724 20.1815 24.1667C21.527 23.6093 22.6771 22.6655 23.4862 21.4546C24.2953 20.2437 24.7272 18.82 24.7272 17.3636C24.7271 15.4107 23.9512 13.5378 22.5703 12.1569C21.1894 10.776 19.3165 10.0001 17.3636 10Z" stroke="#F3F3F3" stroke-width="1.5" stroke-miterlimit="10"/>
<path d="M22.8574 22.8574L28.0001 28.0001" stroke="#F3F3F3" stroke-width="1.5" stroke-miterlimit="10" stroke-linecap="round"/>
</svg>
