<svg width="18" height="18" viewBox="0 0 18 18" fill="none" xmlns="http://www.w3.org/2000/svg">
<path d="M1.5 9.375C1.5 8.54655 2.17157 7.875 3 7.875C4.24264 7.875 5.25 8.88232 5.25 10.125V13.125C5.25 14.3677 4.24264 15.375 3 15.375C2.17157 15.375 1.5 14.7034 1.5 13.875V9.375Z" stroke="#A1A6B4" stroke-width="1.5" stroke-linecap="round" stroke-linejoin="round"/>
<path d="M11.609 5.8547L11.4093 6.49976C11.2456 7.02833 11.1638 7.29262 11.2267 7.50135C11.2777 7.67018 11.3894 7.81575 11.5417 7.91153C11.73 8.02988 12.0148 8.02988 12.5843 8.02988H12.8873C14.8149 8.02988 15.7786 8.02988 16.2339 8.60048C16.2859 8.66565 16.3321 8.73503 16.3722 8.80778C16.7224 9.44408 16.3243 10.3013 15.528 12.0158C14.7973 13.5892 14.4319 14.3759 13.7535 14.8389C13.6879 14.8837 13.6204 14.926 13.5512 14.9656C12.837 15.375 11.9521 15.375 10.1823 15.375H9.79845C7.65427 15.375 6.58221 15.375 5.91611 14.7296C5.25 14.0842 5.25 13.0454 5.25 10.9679V10.2377C5.25 9.14595 5.25 8.6001 5.44375 8.10045C5.63751 7.6008 6.00851 7.18998 6.75052 6.36834L9.81907 2.97042C9.89602 2.88521 9.9345 2.84259 9.96847 2.81306C10.2851 2.53746 10.7739 2.56848 11.0508 2.88176C11.0805 2.91533 11.1129 2.96243 11.1777 3.05666C11.2791 3.20404 11.3298 3.27773 11.374 3.35074C11.7696 4.00435 11.8893 4.78077 11.7081 5.51786C11.6878 5.60019 11.6616 5.68508 11.609 5.8547Z" stroke="#A1A6B4" stroke-width="1.5" stroke-linecap="round" stroke-linejoin="round"/>
</svg>
