<svg xmlns="http://www.w3.org/2000/svg" xmlns:xlink="http://www.w3.org/1999/xlink" width="500" zoomAndPan="magnify" viewBox="0 0 375 374.999991" height="500" preserveAspectRatio="xMidYMid meet" version="1.0"><defs><clipPath id="66305a90b4"><path d="M 6 63 L 371.589844 63 L 371.589844 311 L 6 311 Z M 6 63 " clip-rule="nonzero"/></clipPath></defs><g clip-path="url(#66305a90b4)"><path fill="#ffffff" d="M 308.394531 63.613281 C 304.820312 64.207031 301.410156 65.742188 298.085938 68.25 C 294.023438 71.308594 292.785156 72.90625 284.414062 85.902344 C 277.238281 97.039062 273.410156 102.699219 269.34375 108.191406 C 267.828125 110.234375 265.714844 113.207031 264.644531 114.796875 C 263.570312 116.386719 262.113281 118.488281 261.402344 119.472656 C 260.691406 120.457031 259.824219 121.863281 259.480469 122.59375 C 258.96875 123.675781 258.617188 124.027344 257.617188 124.457031 C 255.703125 125.277344 255.027344 124.996094 248.238281 120.527344 C 247.128906 119.796875 246.074219 119.199219 245.894531 119.199219 C 245.714844 119.199219 245.101562 118.878906 244.527344 118.488281 C 242.574219 117.164062 229.984375 111.09375 224.945312 109.050781 C 224.191406 108.746094 222.148438 107.859375 220.40625 107.078125 C 218.667969 106.300781 215.820312 105.105469 214.082031 104.417969 C 212.339844 103.734375 209.679688 102.679688 208.164062 102.078125 C 202.757812 99.921875 193.15625 96.6875 187.394531 95.078125 C 185.957031 94.675781 183.046875 93.824219 180.929688 93.183594 C 178.8125 92.542969 176.644531 91.929688 176.117188 91.816406 C 175.585938 91.703125 173.109375 91.066406 170.613281 90.398438 C 168.117188 89.730469 164.488281 88.875 162.550781 88.492188 C 160.613281 88.113281 158.695312 87.675781 158.292969 87.523438 C 157.542969 87.238281 155.441406 86.785156 150.753906 85.902344 C 149.289062 85.625 147.433594 85.214844 146.628906 84.984375 C 145.824219 84.757812 143.371094 84.3125 141.175781 83.992188 C 138.984375 83.675781 135.703125 83.15625 133.886719 82.839844 C 129.273438 82.039062 125.769531 81.566406 120.820312 81.082031 C 118.472656 80.851562 116.371094 80.605469 116.140625 80.542969 C 115.261719 80.285156 104.183594 79.308594 99.085938 79.039062 C 86.152344 78.359375 70.511719 78.171875 49.566406 78.445312 C 28.558594 78.71875 22.039062 78.960938 14.765625 79.722656 C 12.648438 79.941406 10.425781 80.125 9.832031 80.121094 C 9.238281 80.121094 8.214844 80.378906 7.5625 80.695312 C 5.246094 81.816406 5.660156 82.386719 14.074219 89.617188 C 16.539062 91.734375 19.550781 94.335938 20.761719 95.394531 C 28.21875 101.90625 37.703125 109.773438 42 113.007812 L 46.378906 116.308594 C 47.785156 117.367188 49.710938 118.941406 50.660156 119.804688 C 52.117188 121.132812 52.359375 121.480469 52.214844 122.046875 C 51.980469 122.972656 50.113281 124 47.84375 124.441406 C 45.421875 124.914062 43.953125 125.730469 43.84375 126.660156 C 43.734375 127.609375 44.683594 128.394531 50.804688 132.394531 C 55.695312 135.589844 57.421875 136.625 64.699219 140.742188 C 68.972656 143.160156 84.234375 150.691406 87.433594 151.960938 C 88.621094 152.433594 89.71875 152.921875 89.871094 153.042969 C 90.019531 153.167969 92.929688 154.410156 96.335938 155.804688 C 106.738281 160.070312 125.898438 166.25 132.203125 167.371094 C 133.128906 167.535156 135.308594 168.023438 137.050781 168.457031 C 140.28125 169.257812 141.925781 169.539062 147.503906 170.238281 C 149.246094 170.457031 152.03125 170.820312 153.695312 171.042969 C 158.921875 171.75 169.171875 172.0625 177.765625 171.777344 C 184.949219 171.539062 186.183594 171.421875 192.484375 170.386719 C 203.074219 168.644531 214.351562 165.277344 221.8125 161.628906 C 225.773438 159.691406 228.171875 158.292969 236.914062 152.824219 C 239.058594 151.484375 239.035156 152.304688 236.820312 155.972656 C 236.007812 157.316406 235.03125 158.96875 234.644531 159.652344 C 233.742188 161.25 225.582031 173.046875 223.046875 176.417969 C 220.847656 179.339844 220.261719 180.164062 217.710938 183.867188 C 216.71875 185.304688 215.527344 187.015625 215.0625 187.664062 C 214.574219 188.347656 214.085938 189.035156 213.601562 189.726562 C 213.265625 190.214844 212.890625 190.734375 212.773438 190.886719 C 211.605469 192.367188 209.835938 194.828125 208.746094 196.476562 C 208.011719 197.582031 206.777344 199.277344 206 200.246094 C 205.226562 201.214844 204.253906 202.539062 203.84375 203.1875 C 203.429688 203.839844 202.464844 205.238281 201.695312 206.296875 C 200.929688 207.355469 199.839844 208.902344 199.28125 209.738281 C 198.722656 210.570312 197.488281 212.273438 196.542969 213.527344 C 195.597656 214.78125 194.824219 215.882812 194.824219 215.976562 C 194.824219 216.066406 194.285156 216.777344 193.625 217.550781 C 192.964844 218.324219 191.972656 219.636719 191.421875 220.46875 C 190.871094 221.300781 190.191406 222.292969 189.90625 222.671875 C 189.621094 223.050781 188.171875 225.09375 186.679688 227.210938 C 185.191406 229.332031 182.875 232.363281 181.535156 233.953125 C 178.644531 237.378906 177.894531 238.667969 178.320312 239.460938 C 178.84375 240.445312 182.023438 239.859375 183.539062 238.503906 C 183.769531 238.296875 185.6875 237.238281 187.808594 236.15625 C 192.835938 233.582031 196.859375 231.417969 197.332031 231.03125 C 197.539062 230.859375 198.144531 230.503906 198.675781 230.242188 C 199.203125 229.976562 200.269531 229.28125 201.039062 228.691406 C 201.808594 228.105469 202.535156 227.625 202.652344 227.625 C 202.773438 227.625 203.628906 227.082031 204.554688 226.421875 C 206.472656 225.058594 209.296875 223.496094 209.855469 223.496094 C 210.425781 223.496094 210.300781 224.339844 209.546875 225.558594 C 209.175781 226.164062 208.867188 226.945312 208.863281 227.296875 C 208.855469 227.875 207.675781 230.34375 206.597656 232.027344 C 206.355469 232.40625 206.066406 233.023438 205.953125 233.402344 C 205.839844 233.78125 205.085938 235.496094 204.273438 237.210938 C 203.464844 238.925781 202.800781 240.382812 202.800781 240.449219 C 202.800781 240.515625 202.519531 241.03125 202.175781 241.59375 C 201.832031 242.160156 201.316406 243.304688 201.03125 244.136719 C 200.746094 244.96875 200.300781 245.957031 200.039062 246.335938 C 199.777344 246.714844 199.050781 248.070312 198.417969 249.351562 C 197.789062 250.628906 197.160156 251.816406 197.015625 251.988281 C 196.875 252.15625 196.441406 253.140625 196.054688 254.167969 C 195.667969 255.199219 194.921875 256.867188 194.398438 257.878906 C 193.875 258.890625 193.449219 259.859375 193.449219 260.027344 C 193.449219 260.289062 190.320312 266.601562 189.390625 268.214844 C 188.980469 268.921875 185.746094 275.738281 185.746094 275.890625 C 185.746094 275.953125 184.929688 277.71875 183.933594 279.816406 C 181.546875 284.84375 181.238281 285.515625 180.394531 287.558594 C 180 288.507812 178.574219 291.542969 177.230469 294.300781 C 174.5 299.894531 172.539062 304.066406 172.539062 304.277344 C 172.539062 304.351562 172.226562 304.886719 171.84375 305.464844 C 170.828125 307 170.015625 310.007812 170.453125 310.609375 C 170.667969 310.902344 170.988281 311.011719 171.320312 310.902344 C 171.613281 310.808594 173.644531 308.855469 175.839844 306.5625 C 178.035156 304.265625 181.871094 300.320312 184.367188 297.792969 C 186.867188 295.265625 189.507812 292.558594 190.242188 291.78125 C 191.824219 290.101562 192.492188 289.988281 193.042969 291.3125 C 193.46875 292.328125 194.382812 293.121094 195.136719 293.121094 C 195.671875 293.121094 197.296875 291.835938 197.296875 291.417969 C 197.296875 291.265625 197.53125 290.8125 197.8125 290.410156 C 198.097656 290.007812 198.785156 288.617188 199.339844 287.320312 C 199.894531 286.019531 200.972656 283.914062 201.730469 282.640625 C 202.488281 281.367188 203.832031 278.835938 204.710938 277.019531 C 205.59375 275.203125 208.199219 269.878906 210.503906 265.1875 C 212.808594 260.496094 215.746094 254.367188 217.035156 251.566406 C 218.316406 248.777344 219.597656 245.988281 220.875 243.199219 C 222.714844 239.191406 223.335938 238.183594 225.417969 235.824219 C 226.507812 234.585938 227.515625 233.753906 228.472656 233.304688 C 230.292969 232.449219 234.855469 231.519531 241.589844 230.628906 C 244.660156 230.222656 248.171875 229.566406 249.570312 229.140625 C 250.25 228.933594 252.292969 228.507812 254.109375 228.191406 C 255.925781 227.878906 258.28125 227.371094 259.335938 227.066406 C 260.394531 226.761719 262.746094 226.132812 264.5625 225.675781 C 279.601562 221.878906 296.609375 213.824219 308.289062 204.964844 C 311.828125 202.285156 319.378906 194.980469 321.394531 192.289062 C 324.3125 188.398438 324.796875 187.722656 326.425781 185.246094 C 330.101562 179.65625 333.339844 172.285156 334.582031 166.667969 C 334.917969 165.15625 335.421875 163.113281 335.707031 162.128906 C 337.421875 156.171875 337.484375 136.894531 335.804688 131.335938 C 334.910156 128.375 334.277344 123.71875 334.113281 118.910156 C 333.890625 112.429688 334.203125 110.371094 335.949219 106.714844 C 338.300781 101.789062 341.558594 98.066406 345.824219 95.429688 C 348.617188 93.699219 354.285156 91.007812 355.761719 90.707031 C 356.289062 90.601562 357.058594 90.339844 357.46875 90.132812 C 357.875 89.921875 359.300781 89.363281 360.632812 88.890625 C 361.960938 88.417969 363.222656 87.867188 363.4375 87.667969 C 364.140625 87.015625 363.121094 86.074219 359.859375 84.375 C 356.246094 82.488281 354.613281 81.316406 351.222656 78.1875 C 346.707031 74.023438 341.542969 70.519531 335.128906 67.269531 C 332.628906 66.007812 329.765625 64.726562 328.761719 64.425781 C 324.113281 63.039062 314.21875 62.640625 308.394531 63.613281 M 488.457031 144.585938 C 489.027344 145.984375 489.746094 148.863281 489.976562 150.707031 C 490.128906 151.917969 490.832031 154.765625 491.535156 157.039062 C 493.253906 162.582031 495.546875 170.816406 497.054688 176.851562 C 498.78125 183.753906 499.875 187.5 502.308594 194.867188 C 503.335938 197.972656 506.101562 204.398438 506.6875 205.039062 C 507.183594 205.582031 508.292969 205.058594 508.808594 204.039062 C 509.429688 202.800781 509.53125 200.054688 509.574219 183.125 C 509.597656 174.3125 509.699219 167.070312 509.804688 167.023438 C 510.09375 166.902344 509.324219 161.839844 508.859375 160.820312 C 508.636719 160.328125 508.328125 159.925781 508.171875 159.925781 C 508.019531 159.925781 507.894531 159.773438 507.894531 159.582031 C 507.894531 159.105469 506.042969 155.328125 505.707031 155.117188 C 505.554688 155.027344 505.226562 154.519531 504.976562 153.992188 C 504.511719 153.007812 500.078125 148.652344 499.53125 148.636719 C 499.136719 148.625 497.714844 147.371094 497.714844 147.035156 C 497.714844 146.632812 496.9375 146.433594 496.816406 146.800781 C 496.730469 147.050781 496.539062 147.054688 496.039062 146.824219 C 495.675781 146.65625 494.882812 146.363281 494.277344 146.171875 C 493.671875 145.980469 492.929688 145.601562 492.625 145.324219 C 491.707031 144.492188 488.160156 143.859375 488.457031 144.585938 M 542.339844 144.511719 C 541.84375 144.628906 541.222656 144.914062 540.964844 145.140625 C 540.707031 145.367188 540.0625 145.644531 539.53125 145.753906 C 539 145.863281 538.152344 146.125 537.644531 146.335938 C 536.847656 146.664062 536.742188 146.660156 536.875 146.316406 C 537.003906 145.980469 536.90625 145.96875 536.285156 146.234375 C 535.285156 146.660156 534.835938 147.011719 534.984375 147.253906 C 535.097656 147.4375 534.40625 147.875 531.847656 149.234375 C 531.328125 149.507812 530.550781 150.078125 530.113281 150.492188 C 529.679688 150.910156 529.113281 151.253906 528.855469 151.253906 C 528.578125 151.257812 528.40625 151.457031 528.429688 151.75 C 528.453125 152.027344 527.941406 152.6875 527.261719 153.253906 C 526.59375 153.808594 526.050781 154.410156 526.050781 154.589844 C 526.050781 154.769531 525.890625 154.976562 525.695312 155.050781 C 525.503906 155.125 524.867188 156.097656 524.289062 157.210938 C 523.710938 158.328125 523.007812 159.621094 522.726562 160.085938 C 522.242188 160.882812 521.046875 164.328125 521.253906 164.328125 C 521.304688 164.328125 521.167969 164.847656 520.945312 165.480469 C 519.675781 169.074219 519.253906 173.621094 519.675781 179.09375 C 519.949219 182.617188 520.199219 183.726562 521.546875 187.453125 C 521.90625 188.441406 522.199219 189.539062 522.199219 189.890625 C 522.199219 190.246094 522.425781 190.984375 522.703125 191.535156 C 522.980469 192.085938 523.496094 193.15625 523.851562 193.914062 C 524.875 196.082031 526.515625 198.066406 529.398438 200.625 C 533.101562 203.914062 533.242188 204.003906 536.644531 205.304688 C 538.308594 205.945312 540.25 206.707031 540.960938 207.003906 C 543.035156 207.863281 546.558594 207.976562 549.847656 207.292969 C 553.402344 206.554688 557.710938 205.328125 558.238281 204.90625 C 558.464844 204.722656 559.976562 203.867188 561.597656 203.007812 C 564.890625 201.261719 566.105469 201.070312 566.046875 202.304688 C 566.027344 202.683594 565.878906 203.367188 565.71875 203.820312 C 565.5625 204.273438 565.089844 205.761719 564.675781 207.121094 C 563.972656 209.433594 563.433594 210.726562 562.792969 211.621094 C 562.578125 211.921875 562.496094 211.898438 562.359375 211.507812 C 562.230469 211.140625 561.988281 211.386719 561.320312 212.570312 C 560.53125 213.96875 560.25 214.210938 558.324219 215.136719 C 557.160156 215.699219 555.453125 216.320312 554.539062 216.515625 C 551.886719 217.085938 546.199219 217.296875 543.742188 216.914062 C 541.148438 216.511719 538.410156 215.828125 537.972656 215.472656 C 537.796875 215.328125 537.300781 215.15625 536.875 215.089844 C 535.214844 214.824219 533.585938 214.304688 532.886719 213.820312 C 532.484375 213.542969 532.0625 213.3125 531.949219 213.3125 C 531.835938 213.3125 531.359375 213.03125 530.890625 212.6875 C 529.769531 211.859375 528.660156 211.386719 527.824219 211.386719 C 526.953125 211.386719 525.355469 213.796875 524.636719 216.203125 C 524.339844 217.191406 523.734375 218.351562 523.171875 219.007812 C 522.226562 220.113281 521.648438 221.238281 521.648438 221.980469 C 521.648438 222.671875 522.949219 223.902344 524.410156 224.597656 C 525.464844 225.101562 526.511719 225.617188 527.550781 226.148438 C 530.042969 227.421875 537.136719 229.429688 542.695312 230.4375 C 545.140625 230.882812 557.351562 230.890625 558.925781 230.449219 C 560.054688 230.132812 563.554688 228.988281 565.535156 228.289062 C 566.71875 227.875 570.085938 225.980469 572.484375 224.382812 C 574.796875 222.84375 577.660156 220.042969 578.136719 218.855469 C 578.371094 218.269531 578.753906 217.714844 578.992188 217.625 C 579.566406 217.402344 580.511719 215.808594 580.335938 215.351562 C 580.078125 214.675781 581.132812 212.128906 582.003906 211.328125 L 582.859375 210.550781 L 582.847656 206.496094 C 582.738281 173.917969 582.746094 154.34375 582.871094 152.222656 C 583.027344 149.453125 582.769531 146.992188 582.308594 146.941406 C 582.160156 146.925781 581.902344 146.726562 581.738281 146.5 C 581.484375 146.160156 580.378906 146.097656 574.847656 146.113281 C 571.140625 146.128906 567.9375 146.257812 567.527344 146.414062 C 566.566406 146.78125 565.84375 147.921875 565.878906 149.011719 C 565.921875 150.375 565.695312 151.121094 565.230469 151.121094 C 564.679688 151.121094 562.578125 149.902344 560.976562 148.65625 C 559.402344 147.425781 558.289062 146.890625 556.039062 146.273438 C 555.054688 146.003906 553.980469 145.613281 553.648438 145.40625 C 552.195312 144.488281 544.878906 143.910156 542.339844 144.511719 M 622.277344 144.527344 C 619.679688 144.832031 618.828125 145.046875 618.675781 145.441406 C 618.605469 145.632812 617.539062 145.957031 616.308594 146.164062 C 615.082031 146.371094 613.425781 146.867188 612.636719 147.269531 C 608.855469 149.179688 607.015625 150.167969 606.210938 150.714844 C 603.3125 152.683594 600.546875 155.195312 600.796875 155.636719 C 600.890625 155.800781 600.867188 155.84375 600.742188 155.734375 C 600.433594 155.453125 599.78125 156.039062 599.78125 156.597656 C 599.78125 156.847656 599.359375 157.488281 598.84375 158.019531 C 597.714844 159.179688 595.511719 163.722656 595.265625 165.386719 C 595.167969 166.042969 594.863281 167.035156 594.589844 167.589844 C 594.132812 168.511719 593.402344 171.742188 593.070312 174.316406 C 592.496094 178.71875 595.933594 189.910156 599.308594 194.640625 C 600.644531 196.515625 603.792969 199.683594 605.144531 200.523438 C 605.597656 200.800781 606.21875 201.242188 606.519531 201.5 C 606.824219 201.757812 608 202.433594 609.132812 203.003906 C 610.269531 203.578125 611.445312 204.261719 611.746094 204.523438 C 612.050781 204.785156 613.203125 205.253906 614.308594 205.5625 C 615.417969 205.875 617.027344 206.527344 617.886719 207.011719 L 619.449219 207.898438 L 624.265625 208.011719 C 627.945312 208.097656 629.402344 208.03125 630.453125 207.722656 C 633.707031 206.769531 638.535156 204.898438 639.804688 204.097656 C 640.5625 203.617188 641.367188 203.15625 641.597656 203.074219 C 643.976562 202.207031 651.601562 195.375 652.738281 193.085938 C 653.375 191.808594 654.46875 190.199219 655.003906 189.746094 C 655.621094 189.222656 656.527344 186.574219 656.59375 185.105469 C 656.628906 184.351562 656.867188 183.171875 657.128906 182.492188 C 657.386719 181.8125 657.707031 180.695312 657.835938 180.015625 C 658.164062 178.277344 658.160156 173.753906 657.828125 173.550781 C 657.675781 173.457031 657.550781 172.960938 657.550781 172.449219 C 657.550781 171.9375 657.441406 171.449219 657.308594 171.367188 C 656.914062 171.121094 656.320312 167.539062 656.65625 167.425781 C 656.851562 167.363281 656.824219 166.992188 656.578125 166.3125 C 656.378906 165.75 656.136719 164.949219 656.050781 164.527344 C 655.949219 164.050781 655.625 163.660156 655.203125 163.5 C 654.828125 163.355469 654.382812 162.898438 654.210938 162.476562 C 653.992188 161.945312 653.765625 161.414062 653.53125 160.890625 C 653.269531 160.296875 653.019531 159.703125 652.777344 159.101562 C 652.328125 157.972656 647.804688 153.109375 645.679688 151.472656 C 644.871094 150.847656 643.476562 149.953125 642.582031 149.480469 C 641.6875 149.011719 640.679688 148.328125 640.347656 147.96875 C 639.796875 147.378906 638.175781 146.722656 637.25 146.71875 C 637.054688 146.71875 636.511719 146.523438 636.050781 146.28125 C 635.585938 146.042969 635.289062 145.980469 635.390625 146.144531 C 635.691406 146.628906 635.117188 146.492188 633.273438 145.648438 C 630.46875 144.363281 626.851562 143.996094 622.277344 144.527344 M 453.082031 146.117188 C 452.054688 146.234375 450.75 147.613281 450.386719 148.960938 C 450.035156 150.269531 450.132812 161.847656 450.496094 161.851562 C 451.792969 161.863281 463.347656 154.644531 465.6875 152.359375 C 466.667969 151.402344 466.820312 151.085938 466.871094 149.933594 C 466.925781 148.726562 466.835938 148.511719 465.878906 147.554688 L 464.828125 146.503906 L 461.394531 146.339844 C 456.078125 146.082031 453.902344 146.023438 453.082031 146.117188 M 562.640625 149.027344 C 562.640625 149.085938 562.832031 149.210938 563.066406 149.300781 C 563.3125 149.394531 563.421875 149.347656 563.328125 149.191406 C 563.164062 148.929688 562.640625 148.804688 562.640625 149.027344 M 548.886719 159.921875 C 547.074219 160.074219 546.582031 160.242188 544.855469 161.316406 C 542.515625 162.773438 540.90625 164.160156 540.90625 164.71875 C 540.90625 164.941406 540.78125 165.199219 540.628906 165.296875 C 540.472656 165.390625 540.171875 165.894531 539.953125 166.414062 C 539.738281 166.933594 539.390625 167.355469 539.183594 167.355469 C 538.550781 167.355469 537.550781 169.003906 537.453125 170.207031 C 536.804688 178.121094 537.039062 182.492188 538.203125 184.1875 C 538.480469 184.589844 538.707031 185.128906 538.707031 185.390625 C 538.707031 185.746094 538.792969 185.789062 539.0625 185.566406 C 539.328125 185.34375 539.585938 185.488281 540.109375 186.152344 C 541.148438 187.46875 541.277344 187.742188 540.785156 187.550781 C 540.140625 187.304688 540.261719 187.535156 541.25 188.425781 C 541.742188 188.867188 541.992188 189.050781 541.800781 188.832031 C 541.613281 188.617188 541.457031 188.328125 541.457031 188.199219 C 541.457031 187.933594 544.398438 189.9375 545.484375 190.945312 C 546.179688 191.589844 550.917969 192.949219 552.460938 192.949219 C 552.839844 192.949219 554.058594 192.578125 555.171875 192.125 C 556.285156 191.671875 557.324219 191.296875 557.484375 191.296875 C 557.644531 191.296875 558.179688 190.988281 558.675781 190.609375 C 559.171875 190.234375 559.667969 189.921875 559.777344 189.921875 C 560.269531 189.921875 561.96875 188.339844 563.050781 186.871094 C 564.023438 185.546875 564.269531 184.960938 564.429688 183.582031 C 564.542969 182.613281 564.777344 181.84375 564.984375 181.765625 C 566.84375 181.050781 566.058594 169.441406 563.945312 166.417969 C 562.097656 163.773438 560.867188 162.675781 558.234375 161.328125 C 555.785156 160.074219 555.394531 159.957031 553.261719 159.859375 C 551.988281 159.800781 550.019531 159.828125 548.886719 159.921875 M 618.859375 160.726562 C 616.160156 162.003906 615.257812 162.960938 611.953125 168.0625 C 611.515625 168.734375 611.210938 169.441406 610.828125 170.660156 C 610.523438 171.625 610.40625 177.417969 610.644531 179.742188 C 610.714844 180.421875 610.789062 181.472656 610.808594 182.078125 C 610.847656 183.140625 612.0625 185.332031 612.917969 185.878906 C 613.109375 186 613.511719 186.585938 613.816406 187.183594 C 614.121094 187.777344 614.675781 188.449219 615.050781 188.679688 C 615.429688 188.910156 616.0625 189.3125 616.464844 189.578125 C 620.019531 191.921875 622.351562 192.789062 625.089844 192.789062 C 628.625 192.785156 633.730469 190.867188 636.09375 188.660156 C 637.914062 186.953125 639.753906 183.566406 640.335938 180.839844 C 640.578125 179.707031 640.96875 178.050781 641.207031 177.164062 C 641.621094 175.625 641.613281 175.421875 641.027344 172.898438 C 640.644531 171.246094 639.921875 169.253906 639.101562 167.613281 C 637.53125 164.464844 635.625 162.546875 632.492188 160.957031 L 630.453125 159.925781 L 625.503906 159.925781 C 620.605469 159.925781 620.53125 159.9375 618.859375 160.726562 M 466.765625 168.242188 C 466.160156 168.546875 464.675781 169.386719 463.464844 170.105469 C 462.253906 170.820312 459.609375 172.300781 457.589844 173.394531 C 455.570312 174.484375 453.066406 175.925781 452.023438 176.589844 L 450.132812 177.804688 L 450.285156 189.296875 C 450.367188 195.621094 450.558594 201.375 450.714844 202.085938 C 450.875 202.835938 451.304688 203.691406 451.726562 204.121094 C 453.078125 205.484375 453.976562 205.675781 459.0625 205.691406 C 466.152344 205.707031 466.324219 205.539062 466.644531 198.316406 C 466.75 195.894531 466.800781 189.207031 466.75 183.457031 C 466.65625 172.21875 466.820312 169.308594 467.605469 168.441406 C 468.304688 167.667969 468.027344 167.601562 466.765625 168.242188 M 564.171875 206.121094 C 563.613281 207.203125 563.59375 207.726562 564.125 207.28125 C 564.53125 206.945312 564.960938 205.636719 564.738281 205.414062 C 564.664062 205.339844 564.410156 205.660156 564.171875 206.121094 M 612.601562 228.890625 C 612.5 229.144531 612.484375 229.414062 612.558594 229.492188 C 612.636719 229.566406 612.777344 229.421875 612.875 229.164062 C 612.972656 228.910156 612.992188 228.640625 612.914062 228.5625 C 612.839844 228.488281 612.699219 228.636719 612.601562 228.890625 M 612.871094 253.863281 C 612.328125 254.292969 612.125 254.65625 612.242188 254.960938 C 612.535156 255.726562 613.265625 255.472656 613.6875 254.464844 C 614.316406 252.960938 614.148438 252.839844 612.871094 253.863281 " fill-opacity="1" fill-rule="evenodd"/></g></svg>