<?xml version="1.0" encoding="utf-8"?>
<!-- Generator: Adobe Illustrator 25.4.1, SVG Export Plug-In . SVG Version: 6.00 Build 0)  -->
<svg version="1.1" id="Layer_3" xmlns="http://www.w3.org/2000/svg" xmlns:xlink="http://www.w3.org/1999/xlink" x="0px" y="0px"
	 viewBox="0 0 1735.09 718.29" style="enable-background:new 0 0 1735.09 718.29;" xml:space="preserve">
<style type="text/css">
	.st0{fill-rule:evenodd;clip-rule:evenodd;fill:#FFFFFF;}
	.st1{fill:#FFFFFF;}
</style>
<g>
	<path class="st0" d="M480.51,293.85v-1.56l1.82,1.3L480.51,293.85z M720.37,171c-1.99-8.46-12.3-6.95-22.83-14.72
		c-6.99-5.16-10.19-10.95-19.99-17.38c-2.97-1.94-2.78-1.72-5.86-3.44l-5.79-3.45c-24.55-14.72-60.03-14.28-79.81,7.33
		c-1.33,1.45-0.41,0.38-1.93,2.44l-1.23,1.79c-0.19,0.27-0.44,0.66-0.63,0.93l-36.35,55.46l-9.97,13.78
		c-0.5,0.8-2.68,4.48-2.81,4.67l-9.68,14.06c-4.53,6.64-5.98,3.19-14.4-1.5l-33.26-18.16l-42.07-17.15
		c-91.82-36.98-190.96-45.07-289.84-45.19c-24.48-0.03-64.13,4.68-88.82,4.68c2.16,8.09,42.47,40.43,47.93,45.57l30.61,23.93
		c4.64,3.37,7.29,3.94,10.29,8.42c-6.98,0.16-18.49,3.89-23.37,6.23l17.13,12.47c19.52,13.1,71.47,40.33,94.22,47.71
		c0.5,0.16,2.01,0.62,2.49,0.79c6.72,2.42-1.42-0.65,3.25,1.36c63.77,27.45,155.45,37.29,222.64,3.14
		c5.81-2.95,14.09-9.15,20.23-10.93c-1.37,5.52-35.41,52.25-41.45,61.39l-21.19,30.23c-2.59,3.91-4.18,6.35-7.05,10.1
		c-2.78,3.63-4.71,6.01-7.31,9.83l-36.75,48.95c6.53-0.14,12.04-3.26,17.13-6.25c3.61-2.12,3.72-2.57,8-4.46l38.76-22.01
		l-27.84,60.99c-1.8,4.63-2.91,6.72-4.9,10.67l-43.62,93.52c6.12-1.63,18.54-16.2,23.76-21.43c8.3-8.3,15.69-18.87,22.99-23.76
		c1.47,3.07,2.25,7.19,3.12,10.91c5.88-1.57,3.6-0.95,9.35-12.47l29.08-58.18c2.61-5.21,4.28-9.89,7.06-14.75l15.28-29.91
		c14.5,0,28.09-3.22,40.87-5.88c37.73-7.85,73.82-19.89,104.96-43.08c3.2-2.38,6.15-4.29,8.85-6.73c3.77-3.41,5.07-5.03,8.96-8.18
		l15.13-17.59c38.62-50.58,19.09-98.07,19.08-135.19c0-19.01,10.85-31.1,26.5-38.66l17.01-6.65c8.02-2.69,14.09-3.59,14.09-4.19
		L720.37,171z M430.64,421.62l1.56-1.56L430.64,421.62z"/>
</g>
<path class="st1" d="M941.48,259.42h-65.63v189.57h-50.66V259.42h-65.95v-43.65h182.24V259.42z M1022.24,222.78
	c0,14.66-12.11,26.76-27.4,26.76c-15.61,0-28.04-12.11-28.04-26.76c0-14.02,12.74-26.13,28.04-26.13
	C1009.82,196.66,1022.24,208.13,1022.24,222.78z M970.31,448.99V268.34h48.43v180.65H970.31z M1177.29,264.84
	c39.51,0,66.91,28.99,66.91,77.42v106.73h-48.43v-99.4c0-26.44-15.61-41.1-38.55-41.1c-24.85,0-43.33,17.2-43.33,41.42v99.08h-48.43
	V268.34h48.43v27.08C1128.55,280.45,1149.58,264.84,1177.29,264.84z M1416.67,268.34h48.75V437.2c0,55.76-33.77,86.34-99.72,86.34
	c-41.42,0-69.77-13.7-85.07-24.53l18.48-33.77c15.61,9.56,36,17.84,62.45,17.84c33.77,0,55.12-13.7,55.12-49.38v-6.69
	c-12.11,14.97-30.9,25.17-59.9,25.17c-46.83,0-80.61-37.28-80.61-93.67s33.77-93.67,80.61-93.67c28.99,0,47.79,10.2,59.9,25.49
	V268.34z M1372.38,408.53c29.63,0,45.24-21.98,45.24-50.02c0-28.67-15.61-50.02-45.24-50.02c-29.31,0-47.15,21.35-47.15,50.02
	C1325.23,386.54,1343.07,408.53,1372.38,408.53z M1596.09,452.49c-56.39,0-96.54-42.37-96.54-93.99s40.14-93.67,96.54-93.67
	c56.39,0,96.54,42.06,96.54,93.67S1652.49,452.49,1596.09,452.49z M1596.09,308.17c-29.63,0-47.79,21.66-47.79,50.34
	c0,28.36,18.16,50.66,47.79,50.66c29.95,0,47.79-22.3,47.79-50.66C1643.88,329.83,1626.04,308.17,1596.09,308.17z"/>
<path class="st1" d="M1626.08,602.39l-9.42-23.95h-52.53l-9.42,23.95h-28.41l50.06-120.93h28.25l49.89,120.93H1626.08z
	 M1572.72,556.79h35.52l-17.84-45.26L1572.72,556.79z M1694.01,602.39h-26.1V481.46h26.1V602.39z"/>
</svg>
