<?xml version="1.0" encoding="utf-8"?>
<!-- Generator: Adobe Illustrator 25.4.1, SVG Export Plug-In . SVG Version: 6.00 Build 0)  -->
<svg version="1.1" xmlns="http://www.w3.org/2000/svg" xmlns:xlink="http://www.w3.org/1999/xlink" x="0px" y="0px"
	 viewBox="0 0 914.9 619.86" style="enable-background:new 0 0 914.9 619.86;" xml:space="preserve">
<style type="text/css">
	.st0{fill:#314898;}
	.st1{fill:#EE7C10;}
</style>
<g id="Background">
</g>
<g id="_x31_">
	<g>
		<path class="st0" d="M93.92,60.28c0-4.8,0-9.6,0-14.39c0.55,0.28,1.1,0.55,1.65,0.84c11.85,6.39,23.59,12.99,35.57,19.12
			c20.52,10.52,41.5,20.09,62.71,29.13c25.98,11.07,52.35,21.16,79.07,30.3c23.57,8.06,47.38,15.33,71.44,21.79
			c24.13,6.48,48.43,12.22,72.97,16.87c12.68,2.41,25.41,4.54,38.16,6.58c9.61,1.54,19.27,2.85,28.93,4.04
			c8.05,0.99,16.14,1.76,24.23,2.44c10.02,0.84,20.04,1.6,30.08,2.2c7.57,0.45,15.15,0.66,22.73,0.84
			c22.76,0.55,45.5,0.09,68.22-1.3c5.48-0.34,10.95-0.81,16.42-1.26c5.93-0.49,11.87-0.93,17.79-1.6
			c8.14-0.91,16.27-1.92,24.38-3.06c8.8-1.23,17.59-2.55,26.36-4.04c7.62-1.29,15.2-2.82,22.78-4.33
			c14.33-2.85,28.54-6.27,42.64-10.1c23.98-6.52,47.59-14.13,70.45-23.95c0.29-0.12,0.64-0.1,1.31-0.19
			c-0.63,0.94-1.03,1.59-1.48,2.2c-15.98,21.86-31.97,43.72-47.96,65.59c-48.1,65.77-96.2,131.54-144.3,197.31
			c-32.29,44.16-64.59,88.32-96.88,132.48c-5.02,6.87-10.1,13.71-15.04,20.64c-1.14,1.59-2.37,2.2-4.28,1.94
			c-1.68-0.23-3.4-0.22-5.1-0.25c-10.21-0.15-20.43-0.3-30.64-0.43c-12-0.15-23.99-0.3-35.99-0.44
			c-15.94-0.19-31.89-0.36-47.83-0.55c-10.45-0.12-20.89-0.27-31.34-0.39c-13.93-0.16-27.86-0.29-41.79-0.45
			c-12.85-0.15-25.69-0.33-38.54-0.49c-13.16-0.16-26.31-0.32-39.47-0.47c-14.39-0.17-28.79-0.32-43.18-0.49
			c-10.99-0.13-21.98-0.29-32.97-0.42c-14.16-0.16-28.33-0.3-42.49-0.46c-18.19-0.2-36.37-0.42-54.56-0.63c-0.15,0-0.31,0-0.46,0
			c-1.78-0.08-1.89-0.2-1.95-2.07c-0.01-0.31,0-0.62,0-0.93c-0.15-80.17-0.32-160.33-0.45-240.5C95,247.92,95.01,194.45,94.9,140.98
			c-0.05-23.21-0.31-46.42-0.48-69.62c-0.02-2.79-0.02-5.57-0.1-8.36C94.3,62.09,94.06,61.19,93.92,60.28z"/>
		<path class="st1" d="M474.52,573.97c-16.25,0-32.51,0-48.76,0c-1.03-0.37-2.1-0.31-3.17-0.33c-14.69-0.2-29.38-0.04-44.07-0.46
			c-13.53-0.38-27.08-0.1-40.62-0.49c-13.29-0.39-26.58-0.14-39.88-0.47c-15.91-0.4-31.84-0.13-47.76-0.56
			c-11.16-0.3-22.32-0.13-33.48-0.41c-16-0.4-32-0.14-48-0.56c-12.96-0.34-25.93-0.08-38.89-0.46c-13.2-0.39-26.42-0.04-39.63-0.5
			c-7.22-0.25-14.44-0.12-21.67-0.16c-4.4-0.03-4.41-0.03-4.42-4.34c-0.19-55.8,0.1-111.6-0.37-167.39
			c-0.2-23.8-0.13-47.59-0.18-71.39c0-1.23,0-2.46-0.4-3.65c0-68.87,0-137.73,0.03-206.6c0-0.72-0.57-1.67,0.46-2.21
			c1.04,0.66,2.05,1.36,3.12,1.97c22.61,12.93,45.97,24.37,69.72,35.03c37.7,16.93,76.31,31.49,115.77,43.82
			c37.02,11.56,74.57,20.99,112.7,28.11c31.42,5.87,63.05,9.95,94.95,12.04c14.25,0.93,28.53,1.11,42.8,1.49
			c5.67,0.15,11.32-0.19,16.98-0.31c5.91-0.12,11.81-0.18,17.72-0.45c12.3-0.56,24.57-1.39,36.83-2.51
			c14.14-1.29,28.23-3.03,42.26-5.21c28.42-4.42,56.47-10.52,84.08-18.62c16.55-4.86,32.86-10.4,48.8-17.03
			c1.81-0.76,3.53-1.77,5.48-2.19c-0.13,1.21-0.89,2.1-1.57,3.02c-38.05,51.98-76.11,103.97-114.16,155.95
			c-29.72,40.59-59.43,81.19-89.15,121.78c-14.83,20.26-29.67,40.53-44.51,60.79C495.2,545.78,484.86,559.87,474.52,573.97z"/>
	</g>
</g>
</svg>
