<svg width="1440" height="1024" viewBox="0 0 1440 1024" fill="none" xmlns="http://www.w3.org/2000/svg">
<g opacity="0.3">
<path d="M1728 -993H-289V1024H1728V-993Z" stroke="#8E8E93" stroke-width="0.5"/>
<path d="M1681.36 -946.357H-242.357V977.357H1681.36V-946.357Z" stroke="#8E8E93" stroke-width="0.5"/>
<path d="M1634.71 -899.714H-195.714V930.714H1634.71V-899.714Z" stroke="#8E8E93" stroke-width="0.5"/>
<path d="M1588.07 -853.071H-149.071V884.071H1588.07V-853.071Z" stroke="#8E8E93" stroke-width="0.5"/>
<path d="M1541.43 -806.427H-102.427V837.428H1541.43V-806.427Z" stroke="#8E8E93" stroke-width="0.5"/>
<path d="M1494.79 -759.784H-55.7837V790.785H1494.79V-759.784Z" stroke="#8E8E93" stroke-width="0.5"/>
<path d="M1448.14 -713.141H-9.14136V744.141H1448.14V-713.141Z" stroke="#8E8E93" stroke-width="0.5"/>
<path d="M1401.5 -666.498H37.5017V697.498H1401.5V-666.498Z" stroke="#8E8E93" stroke-width="0.5"/>
<path d="M1354.85 -619.854H84.145V650.855H1354.85V-619.854Z" stroke="#8E8E93" stroke-width="0.5"/>
<path d="M1308.21 -573.211H130.788V604.212H1308.21V-573.211Z" stroke="#8E8E93" stroke-width="0.5"/>
<path d="M1261.57 -526.569H177.431V557.569H1261.57V-526.569Z" stroke="#8E8E93" stroke-width="0.5"/>
<path d="M1214.93 -479.925H224.074V510.926H1214.93V-479.925Z" stroke="#8E8E93" stroke-width="0.5"/>
<path d="M1168.28 -433.282H270.718V464.283H1168.28V-433.282Z" stroke="#8E8E93" stroke-width="0.5"/>
<path d="M270.717 464.283L-289 1024" stroke="#8E8E93" stroke-width="0.5"/>
<path d="M345.514 464.283L-83.9722 1024" stroke="#8E8E93" stroke-width="0.5"/>
<path d="M420.311 464.283L97.1582 1024" stroke="#8E8E93" stroke-width="0.5"/>
<path d="M495.109 464.283L263.267 1024" stroke="#8E8E93" stroke-width="0.5"/>
<path d="M569.906 464.283L419.93 1024" stroke="#8E8E93" stroke-width="0.5"/>
<path d="M644.703 464.283L571.015 1024" stroke="#8E8E93" stroke-width="0.5"/>
<path d="M719.5 464.283V1024" stroke="#8E8E93" stroke-width="0.5"/>
<path d="M794.296 464.283L867.984 1024" stroke="#8E8E93" stroke-width="0.5"/>
<path d="M869.094 464.283L1019.07 1024" stroke="#8E8E93" stroke-width="0.5"/>
<path d="M943.892 464.283L1175.73 1024" stroke="#8E8E93" stroke-width="0.5"/>
<path d="M1018.69 464.283L1341.84 1024" stroke="#8E8E93" stroke-width="0.5"/>
<path d="M1093.48 464.283L1522.97 1024" stroke="#8E8E93" stroke-width="0.5"/>
<path d="M1168.28 464.283L1728 1024" stroke="#8E8E93" stroke-width="0.5"/>
<path d="M270.718 15.5007L-289 15.5007" stroke="#8E8E93" stroke-width="0.5"/>
<path d="M270.718 90.2966L-289 163.985" stroke="#8E8E93" stroke-width="0.5"/>
<path d="M270.718 165.094L-289 315.07" stroke="#8E8E93" stroke-width="0.5"/>
<path d="M270.718 239.891L-289 471.734" stroke="#8E8E93" stroke-width="0.5"/>
<path d="M270.718 314.688L-289 637.841" stroke="#8E8E93" stroke-width="0.5"/>
<path d="M270.718 389.485L-289 818.971" stroke="#8E8E93" stroke-width="0.5"/>
<path d="M270.718 464.282L-289 1024" stroke="#8E8E93" stroke-width="0.5"/>
<path d="M1168.28 464.283L1728 1024" stroke="#8E8E93" stroke-width="0.5"/>
<path d="M1168.28 389.487L1728 818.973" stroke="#8E8E93" stroke-width="0.5"/>
<path d="M1168.28 314.689L1728 637.842" stroke="#8E8E93" stroke-width="0.5"/>
<path d="M1168.28 239.892L1728 471.734" stroke="#8E8E93" stroke-width="0.5"/>
<path d="M1168.28 165.095L1728 315.071" stroke="#8E8E93" stroke-width="0.5"/>
<path d="M1168.28 90.2983L1728 163.987" stroke="#8E8E93" stroke-width="0.5"/>
<path d="M1168.28 15.5009L1728 15.5009" stroke="#8E8E93" stroke-width="0.5"/>
</g>
</svg>
