<?xml version="1.0" encoding="utf-8"?>
<!-- Generator: Adobe Illustrator 25.4.1, SVG Export Plug-In . SVG Version: 6.00 Build 0)  -->
<svg version="1.1" xmlns="http://www.w3.org/2000/svg" xmlns:xlink="http://www.w3.org/1999/xlink" x="0px" y="0px"
	 viewBox="0 0 254.51 500" style="enable-background:new 0 0 254.51 500;" xml:space="preserve">
<style type="text/css">
	.st0{fill:#FFFFFF;}
</style>
<g id="BACKGROUND">
</g>
<g id="OBJECTS">
	<g id="PrkGrU.tif">
		<g>
			<path class="st0" d="M18.5,245.57c4.83-10.77,13.13-14.45,24.81-14.37c57.24,0.37,114.48,0.15,171.72,0.19
				c12.96,0.01,21.59,9.34,20.81,22.28c-0.56,9.14-8.88,17.51-18.04,18.07c-1.99,0.12-4,0.06-6,0.06
				c-56.16,0-112.33-0.2-168.49,0.17c-11.68,0.08-19.98-3.6-24.81-14.37C18.5,253.59,18.5,249.58,18.5,245.57z"/>
			<path class="st0" d="M140.42,48.45c7.32,3.03,13.51,7.95,20.07,12.21c22.58,14.68,45.13,29.4,67.56,44.3
				c12.2,8.11,13.15,24.4,2.24,33.56c-6.61,5.55-16.52,6.57-24.16,1.62c-27.89-18.07-55.8-36.14-83.35-54.73
				c-13.17-8.89-11.05-28.49,3.22-35.4c1.11-0.54,2.22-1.05,3.33-1.57C133.03,48.45,136.73,48.45,140.42,48.45z"/>
			<path class="st0" d="M235.81,380.62c-0.13,3.83-2.92,9.41-8.51,13.1c-27.72,18.32-55.44,36.63-83.37,54.62
				c-9.73,6.27-22.4,2.98-28.41-6.47c-6.09-9.57-3.59-21.98,6.22-28.48c27.19-18,54.48-35.85,81.81-53.64
				c7.17-4.67,14.89-4.91,22.29-0.59C232.74,363.21,236.08,369.55,235.81,380.62z"/>
		</g>
	</g>
</g>
</svg>
