<svg width="294" height="294" viewBox="0 0 294 294" fill="none" xmlns="http://www.w3.org/2000/svg">
<rect x="1" y="1" width="292" height="292" rx="146" stroke="#3C3C43" stroke-opacity="0.6" stroke-width="0.5"/>
<path d="M201.206 77.0219C193.831 79.0625 136.972 95.4 122.912 99.3437C122.651 99.4171 122.421 99.5735 122.256 99.7895C122.091 100.005 122.001 100.269 122 100.541V177.728C122 177.857 121.961 177.984 121.886 178.09C121.812 178.195 121.706 178.275 121.584 178.319L112.881 181.303C106.944 183.628 92 186.516 92 199.8C92 210.906 99.6969 215.906 106.331 216.762C107.137 216.907 107.953 216.991 108.772 217.012C111.075 217.012 120.141 214.8 125.428 211.362C132 207.078 132 207 132 195.75V130.125C132 129.844 132.194 129.862 132.462 129.791L191.213 113.566C191.307 113.54 191.407 113.536 191.503 113.556C191.599 113.575 191.689 113.617 191.766 113.678C191.843 113.739 191.905 113.817 191.946 113.906C191.987 113.995 192.007 114.093 192.003 114.191V162.797C192.003 162.927 191.962 163.054 191.885 163.16C191.809 163.266 191.702 163.346 191.578 163.387C188.797 164.325 185.569 165.419 183.303 166.237C173.684 169.712 162 171.891 162 184.5C162 196.534 170.831 201.556 176.469 201.947C178.695 202.116 180.934 202.011 183.134 201.634C185.947 201.203 190.662 199.791 195.053 196.991C202 192.559 202 192.472 202 179.5V77.625C202 77.5284 201.978 77.4331 201.935 77.3465C201.892 77.2599 201.83 77.1845 201.753 77.126C201.676 77.0676 201.587 77.0278 201.492 77.0097C201.397 76.9916 201.299 76.9958 201.206 77.0219Z" fill="#F78B29"/>
</svg>
