<svg width="170" height="48" viewBox="0 0 170 48" fill="none" xmlns="http://www.w3.org/2000/svg">
<rect x="0.666687" y="19.2002" width="9.59998" height="9.59999" fill="#039855"/>
<rect x="29.4666" y="28.7998" width="9.6" height="9.59999" transform="rotate(180 29.4666 28.7998)" fill="#027A48"/>
<path d="M10.2667 19.2001L19.8666 9.6001V19.2001L10.2667 28.8001V19.2001Z" fill="#A6F4C5"/>
<path d="M19.8667 28.7999L10.2667 38.3999L10.2667 28.7999L19.8667 19.1999L19.8667 28.7999Z" fill="#6CE9A6"/>
<path d="M0.666687 19.2L19.8667 0V9.59999L10.2667 19.2H0.666687Z" fill="#32D583"/>
<path d="M29.4666 28.8L10.2667 48L10.2667 38.4L19.8667 28.8L29.4666 28.8Z" fill="#12B76A"/>
<path d="M50.3747 34.2798C48.8627 34.2798 47.3973 34.0651 45.9787 33.6358C44.5787 33.2065 43.468 32.6371 42.6467 31.9278L43.9067 29.0998C44.7093 29.7345 45.6893 30.2571 46.8467 30.6678C48.0227 31.0598 49.1987 31.2558 50.3747 31.2558C51.8307 31.2558 52.9133 31.0225 53.6227 30.5558C54.3507 30.0891 54.7147 29.4731 54.7147 28.7078C54.7147 28.1478 54.5093 27.6905 54.0987 27.3358C53.7067 26.9625 53.2027 26.6731 52.5867 26.4678C51.9707 26.2625 51.1307 26.0291 50.0667 25.7678C48.5733 25.4131 47.36 25.0585 46.4267 24.7038C45.512 24.3491 44.7187 23.7985 44.0467 23.0518C43.3933 22.2865 43.0667 21.2598 43.0667 19.9718C43.0667 18.8891 43.356 17.9091 43.9347 17.0318C44.532 16.1358 45.4187 15.4265 46.5947 14.9038C47.7893 14.3811 49.2453 14.1198 50.9627 14.1198C52.1573 14.1198 53.3333 14.2691 54.4907 14.5678C55.648 14.8665 56.6467 15.2958 57.4867 15.8558L56.3387 18.6838C55.48 18.1798 54.584 17.7971 53.6507 17.5358C52.7173 17.2745 51.812 17.1438 50.9347 17.1438C49.4973 17.1438 48.424 17.3865 47.7147 17.8718C47.024 18.3571 46.6787 19.0011 46.6787 19.8038C46.6787 20.3638 46.8747 20.8211 47.2667 21.1758C47.6773 21.5305 48.1907 21.8105 48.8067 22.0158C49.4227 22.2211 50.2627 22.4545 51.3267 22.7158C52.7827 23.0518 53.9773 23.4065 54.9107 23.7798C55.844 24.1345 56.6373 24.6851 57.2907 25.4318C57.9627 26.1785 58.2987 27.1865 58.2987 28.4558C58.2987 29.5385 58 30.5185 57.4027 31.3958C56.824 32.2731 55.9373 32.9731 54.7427 33.4958C53.548 34.0185 52.092 34.2798 50.3747 34.2798Z" fill="white"/>
<path d="M61.572 19.0478H65.072V33.9998H61.572V19.0478ZM63.336 16.5838C62.7014 16.5838 62.1694 16.3878 61.74 15.9958C61.3107 15.5851 61.096 15.0811 61.096 14.4838C61.096 13.8865 61.3107 13.3918 61.74 12.9998C62.1694 12.5891 62.7014 12.3838 63.336 12.3838C63.9707 12.3838 64.5027 12.5798 64.932 12.9718C65.3614 13.3451 65.576 13.8211 65.576 14.3998C65.576 15.0158 65.3614 15.5385 64.932 15.9678C64.5214 16.3785 63.9894 16.5838 63.336 16.5838Z" fill="white"/>
<path d="M74.2858 34.1958C73.0724 34.1958 71.8871 34.0371 70.7298 33.7198C69.5724 33.4025 68.6484 33.0011 67.9578 32.5158L69.3018 29.8558C69.9738 30.3038 70.7764 30.6678 71.7098 30.9478C72.6618 31.2091 73.5951 31.3398 74.5098 31.3398C76.6004 31.3398 77.6458 30.7891 77.6458 29.6878C77.6458 29.1651 77.3751 28.8011 76.8338 28.5958C76.3111 28.3905 75.4618 28.1945 74.2858 28.0078C73.0538 27.8211 72.0458 27.6065 71.2618 27.3638C70.4964 27.1211 69.8244 26.7011 69.2458 26.1038C68.6858 25.4878 68.4058 24.6385 68.4058 23.5558C68.4058 22.1371 68.9938 21.0078 70.1698 20.1678C71.3644 19.3091 72.9698 18.8798 74.9858 18.8798C76.0124 18.8798 77.0391 19.0011 78.0658 19.2438C79.0924 19.4678 79.9324 19.7758 80.5858 20.1678L79.2418 22.8278C77.9724 22.0811 76.5444 21.7078 74.9578 21.7078C73.9311 21.7078 73.1471 21.8665 72.6058 22.1838C72.0831 22.4825 71.8218 22.8838 71.8218 23.3878C71.8218 23.9478 72.1018 24.3491 72.6618 24.5918C73.2404 24.8158 74.1271 25.0305 75.3218 25.2358C76.5164 25.4225 77.4964 25.6371 78.2618 25.8798C79.0271 26.1225 79.6804 26.5331 80.2218 27.1118C80.7818 27.6905 81.0618 28.5118 81.0618 29.5758C81.0618 30.9758 80.4551 32.0958 79.2418 32.9358C78.0284 33.7758 76.3764 34.1958 74.2858 34.1958Z" fill="white"/>
<path d="M97.8025 19.0478L90.8025 35.2038C90.1492 36.8278 89.3558 37.9665 88.4225 38.6198C87.4892 39.2918 86.3598 39.6278 85.0345 39.6278C84.2878 39.6278 83.5505 39.5065 82.8225 39.2638C82.0945 39.0211 81.4972 38.6851 81.0305 38.2558L82.4305 35.6798C82.7665 35.9971 83.1585 36.2491 83.6065 36.4358C84.0732 36.6225 84.5398 36.7158 85.0065 36.7158C85.6225 36.7158 86.1265 36.5571 86.5185 36.2398C86.9292 35.9225 87.3025 35.3905 87.6385 34.6438L87.8905 34.0558L81.3665 19.0478H85.0065L89.7105 30.1078L94.4425 19.0478H97.8025Z" fill="white"/>
<path d="M108.278 18.8798C109.734 18.8798 111.031 19.1971 112.17 19.8318C113.327 20.4665 114.233 21.3625 114.886 22.5198C115.539 23.6771 115.866 25.0118 115.866 26.5238C115.866 28.0358 115.539 29.3798 114.886 30.5558C114.233 31.7131 113.327 32.6091 112.17 33.2438C111.031 33.8785 109.734 34.1958 108.278 34.1958C106.262 34.1958 104.666 33.5238 103.49 32.1798V39.4318H99.99V19.0478H103.322V21.0078C103.901 20.2985 104.61 19.7665 105.45 19.4118C106.309 19.0571 107.251 18.8798 108.278 18.8798ZM107.886 31.1998C109.174 31.1998 110.229 30.7705 111.05 29.9118C111.89 29.0531 112.31 27.9238 112.31 26.5238C112.31 25.1238 111.89 23.9945 111.05 23.1358C110.229 22.2771 109.174 21.8478 107.886 21.8478C107.046 21.8478 106.29 22.0438 105.618 22.4358C104.946 22.8091 104.414 23.3505 104.022 24.0598C103.63 24.7691 103.434 25.5905 103.434 26.5238C103.434 27.4571 103.63 28.2785 104.022 28.9878C104.414 29.6971 104.946 30.2478 105.618 30.6398C106.29 31.0131 107.046 31.1998 107.886 31.1998Z" fill="white"/>
<path d="M127.669 18.8798C129.555 18.8798 131.067 19.4305 132.205 20.5318C133.344 21.6331 133.913 23.2665 133.913 25.4318V33.9998H130.413V25.8798C130.413 24.5731 130.105 23.5931 129.489 22.9398C128.873 22.2678 127.996 21.9318 126.857 21.9318C125.569 21.9318 124.552 22.3238 123.805 23.1078C123.059 23.8731 122.685 24.9838 122.685 26.4398V33.9998H119.185V13.2238H122.685V20.7838C123.264 20.1678 123.973 19.7011 124.813 19.3838C125.672 19.0478 126.624 18.8798 127.669 18.8798Z" fill="white"/>
<path d="M152.829 19.0478V33.9998H149.497V32.0958C148.937 32.7678 148.237 33.2905 147.397 33.6638C146.557 34.0185 145.652 34.1958 144.681 34.1958C142.684 34.1958 141.107 33.6451 139.949 32.5438C138.811 31.4238 138.241 29.7718 138.241 27.5878V19.0478H141.741V27.1118C141.741 28.4558 142.04 29.4638 142.637 30.1358C143.253 30.7891 144.121 31.1158 145.241 31.1158C146.492 31.1158 147.481 30.7331 148.209 29.9678C148.956 29.1838 149.329 28.0638 149.329 26.6078V19.0478H152.829Z" fill="white"/>
<path d="M162.032 34.1958C160.819 34.1958 159.633 34.0371 158.476 33.7198C157.319 33.4025 156.395 33.0011 155.704 32.5158L157.048 29.8558C157.72 30.3038 158.522 30.6678 159.456 30.9478C160.408 31.2091 161.341 31.3398 162.256 31.3398C164.346 31.3398 165.392 30.7891 165.392 29.6878C165.392 29.1651 165.121 28.8011 164.58 28.5958C164.057 28.3905 163.208 28.1945 162.032 28.0078C160.8 27.8211 159.792 27.6065 159.008 27.3638C158.243 27.1211 157.571 26.7011 156.992 26.1038C156.432 25.4878 156.152 24.6385 156.152 23.5558C156.152 22.1371 156.74 21.0078 157.916 20.1678C159.111 19.3091 160.716 18.8798 162.732 18.8798C163.758 18.8798 164.785 19.0011 165.812 19.2438C166.838 19.4678 167.678 19.7758 168.332 20.1678L166.988 22.8278C165.718 22.0811 164.29 21.7078 162.704 21.7078C161.677 21.7078 160.893 21.8665 160.352 22.1838C159.829 22.4825 159.568 22.8838 159.568 23.3878C159.568 23.9478 159.848 24.3491 160.408 24.5918C160.987 24.8158 161.873 25.0305 163.068 25.2358C164.263 25.4225 165.243 25.6371 166.008 25.8798C166.773 26.1225 167.426 26.5331 167.968 27.1118C168.528 27.6905 168.808 28.5118 168.808 29.5758C168.808 30.9758 168.201 32.0958 166.988 32.9358C165.774 33.7758 164.122 34.1958 162.032 34.1958Z" fill="white"/>
</svg>
