<svg width="1437" height="148" viewBox="0 0 1437 148" fill="none" xmlns="http://www.w3.org/2000/svg">
<g clip-path="url(#clip0_137_2384)">
<rect width="4089" height="72" transform="translate(-22 51.0806) rotate(-2.5)" fill="white"/>
<path d="M-15.8566 103.863L-17.3793 68.9868L4.24781 68.0425L4.44559 72.5723L-11.9195 73.2868L-11.4555 83.9131L3.35988 83.2662L3.55691 87.779L-11.2585 88.4258L-10.5946 103.633L-15.8566 103.863ZM18.6573 102.936C16.9998 103.008 15.4878 102.767 14.1214 102.213C12.7545 101.647 11.6536 100.79 10.8188 99.6439C9.99521 98.497 9.54602 97.0663 9.47117 95.352C9.40673 93.8762 9.63752 92.649 10.1635 91.6706C10.6895 90.6922 11.4229 89.9038 12.3636 89.3054C13.3043 88.7069 14.3645 88.2398 15.5441 87.9039C16.7238 87.5681 17.9291 87.2993 19.1601 87.0977C20.7189 86.8477 21.9839 86.6446 22.9553 86.4884C23.9262 86.3209 24.6271 86.0912 25.058 85.7994C25.4888 85.5076 25.6909 85.0552 25.6641 84.4422L25.6589 84.323C25.594 82.8357 25.1236 81.7018 24.2478 80.921C23.3834 80.1398 22.1281 79.7851 20.4819 79.857C18.7676 79.9319 17.4332 80.3712 16.4788 81.1749C15.5351 81.9668 14.8961 82.8308 14.5616 83.7667L9.72878 82.8858C10.227 81.2716 10.9998 79.9525 12.047 78.9286C13.1051 77.8928 14.3397 77.1223 15.7509 76.6171C17.1615 76.1006 18.6558 75.8078 20.2339 75.7389C21.2783 75.6933 22.3907 75.7699 23.5709 75.9686C24.762 76.1554 25.8826 76.5501 26.9326 77.1526C27.9939 77.7546 28.8801 78.6429 29.5911 79.8176C30.3016 80.9809 30.6985 82.5162 30.7818 84.4235L31.5402 101.793L26.5676 102.01L26.4115 98.4342L26.2072 98.4432C25.9067 99.116 25.4411 99.7847 24.8104 100.449C24.1797 101.114 23.3569 101.679 22.3422 102.144C21.3274 102.609 20.0991 102.873 18.6573 102.936ZM19.5858 98.8005C20.9935 98.739 22.1848 98.4084 23.1595 97.8084C24.1456 97.208 24.8802 96.448 25.3633 95.5283C25.8572 94.5968 26.0816 93.6145 26.0365 92.5814L25.8893 89.2096C25.7156 89.3992 25.3711 89.5848 24.8558 89.7666C24.3514 89.9365 23.7724 90.0926 23.1189 90.2348C22.4649 90.3658 21.8277 90.4903 21.2072 90.6083C20.5863 90.7151 20.0671 90.806 19.6495 90.8811C18.6672 91.0491 17.7739 91.2985 16.9693 91.6294C16.1762 91.9598 15.5477 92.4137 15.0838 92.9913C14.6307 93.5571 14.4241 94.2941 14.4637 95.2023C14.5187 96.4625 15.0258 97.3958 15.985 98.0023C16.9437 98.5974 18.144 98.8635 19.5858 98.8005ZM56.3402 80.9019L51.761 81.9207C51.5422 81.3388 51.2111 80.7902 50.7678 80.275C50.3358 79.7593 49.7604 79.3465 49.0417 79.0366C48.3229 78.7268 47.4356 78.5949 46.3798 78.641C44.938 78.7039 43.7487 79.08 42.812 79.7693C41.8748 80.4472 41.4282 81.2913 41.4723 82.3017C41.5105 83.1759 41.8648 83.8656 42.5352 84.371C43.2056 84.8763 44.2691 85.2678 45.7258 85.5454L49.9226 86.3176C52.3537 86.7688 54.1848 87.5476 55.4161 88.6541C56.6473 89.7605 57.3034 91.239 57.3842 93.0895C57.4526 94.6562 57.0594 96.0724 56.2047 97.3382C55.3609 98.5921 54.148 99.6005 52.5662 100.363C50.9957 101.126 49.1546 101.553 47.043 101.645C44.1139 101.773 41.6969 101.253 39.7919 100.085C37.8864 98.9058 36.673 97.1673 36.1518 94.8696L41.0406 93.9055C41.4031 95.1749 42.0756 96.1181 43.0579 96.7349C44.0398 97.3404 45.2971 97.6097 46.8297 97.5428C48.4986 97.4699 49.8174 97.0654 50.7862 96.3293C51.7546 95.5818 52.2167 94.7028 52.1725 93.6924C52.1369 92.875 51.8003 92.2015 51.163 91.672C50.537 91.142 49.5934 90.7623 48.3322 90.533L43.8622 89.7557C41.3971 89.306 39.5533 88.4993 38.331 87.3356C37.1199 86.1714 36.4738 84.6584 36.3925 82.7965C36.3251 81.2525 36.6975 79.8827 37.5097 78.687C38.322 77.4914 39.4746 76.5368 40.9677 75.8232C42.4602 75.0984 44.1885 74.693 46.1525 74.6073C48.9794 74.4839 51.2313 74.9998 52.9083 76.155C54.5848 77.2989 55.7287 78.8811 56.3402 80.9019ZM73.6612 73.7475L73.8397 77.8345L59.5522 78.4583L59.3737 74.3713L73.6612 73.7475ZM62.9317 67.9372L68.0234 67.7149L69.1038 92.4584C69.1469 93.4461 69.3269 94.1832 69.6439 94.6699C69.9604 95.1452 70.3553 95.4635 70.8287 95.6248C71.313 95.7743 71.8333 95.8369 72.3895 95.8126C72.7983 95.7947 73.1546 95.7507 73.4587 95.6806C73.7627 95.6104 73.9991 95.5546 74.168 95.5131L75.2712 99.6792C74.981 99.8056 74.5659 99.9375 74.0259 100.075C73.4864 100.223 72.8082 100.321 71.9913 100.368C70.6527 100.45 69.3934 100.266 68.2136 99.8167C67.0338 99.3678 66.0635 98.6367 65.3027 97.6234C64.5419 96.6102 64.127 95.3146 64.0581 93.7365L62.9317 67.9372Z" fill="#121826"/>
<path d="M107.706 64.4357L112.938 76.5189L125.431 80.678L113.348 85.9102L109.189 98.4034L103.957 86.3202L91.4637 82.1611L103.547 76.9289L107.706 64.4357Z" fill="#F8872B"/>
<path d="M162.889 70.2956C162.637 68.6914 161.833 67.4753 160.478 66.6473C159.122 65.8079 157.445 65.4318 155.446 65.5191C154.016 65.5815 152.788 65.8626 151.764 66.3623C150.739 66.8507 149.954 67.4992 149.409 68.3078C148.875 69.1046 148.63 69.9968 148.673 70.9845C148.709 71.8133 148.933 72.5201 149.345 73.1049C149.769 73.6893 150.308 74.1719 150.961 74.5529C151.626 74.9219 152.333 75.2266 153.083 75.4669C153.832 75.6958 154.551 75.8805 155.24 76.021L158.684 76.7579C159.809 76.9817 160.966 77.3009 162.155 77.7153C163.345 78.1297 164.456 78.6954 165.488 79.4125C166.52 80.1295 167.368 81.0366 168.03 82.1337C168.703 83.2304 169.074 84.5621 169.143 86.1288C169.229 88.1042 168.794 89.8805 167.84 91.4577C166.896 93.0345 165.479 94.3077 163.587 95.2775C161.707 96.2468 159.405 96.7909 156.68 96.9099C154.069 97.0239 151.792 96.7082 149.849 95.9627C147.905 95.2172 146.361 94.1074 145.216 92.6332C144.071 91.1476 143.395 89.3572 143.19 87.2619L148.469 87.0314C148.626 88.2871 149.081 89.3194 149.833 90.1283C150.595 90.9253 151.548 91.5036 152.689 91.8633C153.842 92.211 155.094 92.3554 156.445 92.2965C157.932 92.2315 159.245 91.941 160.382 91.425C161.531 90.8971 162.422 90.1985 163.055 89.3292C163.687 88.4485 163.979 87.4405 163.929 86.3052C163.884 85.2721 163.552 84.4392 162.933 83.8065C162.325 83.1733 161.512 82.6628 160.495 82.275C159.488 81.8868 158.353 81.5553 157.09 81.2806L152.92 80.3366C150.094 79.6979 147.831 78.6763 146.132 77.2718C144.444 75.8668 143.547 73.9495 143.441 71.52C143.353 69.5106 143.822 67.7328 144.846 66.1866C145.871 64.6405 147.296 63.4124 149.121 62.5023C150.946 61.5809 153.028 61.0692 155.367 60.9671C157.728 60.864 159.83 61.1874 161.671 61.9373C163.524 62.6868 165.004 63.7653 166.112 65.1728C167.219 66.569 167.837 68.2028 167.964 70.074L162.889 70.2956ZM186.02 95.5777C183.443 95.6902 181.199 95.2365 179.289 94.2166C177.39 93.1848 175.892 91.6863 174.793 89.7209C173.706 87.7437 173.103 85.3985 172.985 82.6852C172.868 80.0059 173.264 77.6227 174.174 75.5356C175.095 73.448 176.433 71.7914 178.188 70.566C179.955 69.34 182.053 68.674 184.482 68.5679C185.958 68.5035 187.399 68.6851 188.806 69.1128C190.212 69.5405 191.488 70.2526 192.635 71.249C193.782 72.2453 194.71 73.5641 195.418 75.2052C196.127 76.8349 196.532 78.8362 196.636 81.2089L196.715 83.014L175.922 83.9218L175.756 80.1073L191.559 79.4173C191.5 78.0777 191.176 76.9032 190.586 75.8939C189.995 74.8732 189.193 74.0836 188.179 73.525C187.177 72.966 186.017 72.7152 184.7 72.7727C183.269 72.8351 182.036 73.2416 181 73.9921C179.974 74.7307 179.196 75.6746 178.666 76.8238C178.147 77.9612 177.916 79.1826 177.973 80.4882L178.103 83.4683C178.18 85.2167 178.551 86.6905 179.218 87.8898C179.896 89.0887 180.805 89.9874 181.946 90.5859C183.086 91.1731 184.4 91.4342 185.887 91.3693C186.852 91.3271 187.726 91.1525 188.509 90.8453C189.291 90.5268 189.96 90.0768 190.514 89.4952C191.069 88.9136 191.482 88.2074 191.753 87.3767L196.61 88.0347C196.286 89.4707 195.648 90.7441 194.695 91.8549C193.754 92.9538 192.546 93.8311 191.074 94.4869C189.612 95.1308 187.927 95.4944 186.02 95.5777ZM213.19 94.3914C210.658 94.502 208.454 94.0238 206.576 92.957C204.709 91.8783 203.243 90.3442 202.178 88.3547C201.113 86.3652 200.523 84.0591 200.408 81.4366C200.292 78.7801 200.689 76.4139 201.6 74.3381C202.51 72.251 203.848 70.5945 205.614 69.3685C207.381 68.1426 209.495 67.4758 211.959 67.3683C213.946 67.2815 215.733 67.5732 217.32 68.2432C218.908 68.9019 220.207 69.8689 221.218 71.1441C222.24 72.4189 222.881 73.9322 223.139 75.684L218.184 75.9003C217.858 74.6861 217.187 73.6576 216.172 72.8147C215.169 71.9713 213.855 71.585 212.232 71.6559C210.812 71.7179 209.586 72.1468 208.551 72.9427C207.528 73.7267 206.751 74.8185 206.22 76.2179C205.689 77.606 205.465 79.231 205.546 81.0929C205.629 83.0002 205.991 84.6337 206.63 85.9935C207.269 87.3532 208.134 88.3904 209.223 89.1049C210.323 89.819 211.594 90.1445 213.036 90.0816C214.001 90.0394 214.868 89.8253 215.635 89.4391C216.414 89.0412 217.056 88.4956 217.56 87.8025C218.076 87.1089 218.421 86.2862 218.596 85.3345L223.551 85.1182C223.443 86.8177 222.959 88.3516 222.097 89.7201C221.235 91.0885 220.049 92.1867 218.539 93.0148C217.039 93.8423 215.256 94.3012 213.19 94.3914ZM244.734 81.617L244.066 66.3077L249.174 66.0847L250.316 92.2416L245.31 92.4601L245.112 87.9304L244.84 87.9423C244.299 89.3649 243.385 90.5707 242.097 91.5597C240.82 92.5367 239.2 93.0681 237.236 93.1539C235.556 93.2273 234.052 92.9232 232.726 92.2418C231.41 91.5485 230.352 90.4857 229.55 89.0534C228.759 87.6207 228.317 85.8257 228.223 83.6687L227.496 67.0311L232.588 66.8088L233.288 82.8333C233.365 84.6157 233.921 86.0133 234.955 87.026C235.989 88.0387 237.295 88.5105 238.873 88.4416C239.826 88.4 240.764 88.1202 241.685 87.6023C242.618 87.0838 243.376 86.3284 243.958 85.3362C244.552 84.3434 244.81 83.1037 244.734 81.617ZM256.439 91.9743L255.297 65.8174L260.218 65.6025L260.399 69.7576L260.672 69.7457C261.087 68.3171 261.879 67.1736 263.047 66.315C264.226 65.4445 265.582 64.9759 267.115 64.9089C267.433 64.8951 267.808 64.8901 268.24 64.8939C268.684 64.8973 269.032 64.9106 269.283 64.9337L269.495 69.8041C269.289 69.7562 268.923 69.7097 268.397 69.6643C267.872 69.6077 267.348 69.5907 266.825 69.6135C265.622 69.6661 264.56 69.9684 263.64 70.5204C262.731 71.0605 262.024 71.791 261.518 72.7116C261.012 73.6209 260.783 74.6432 260.833 75.7785L261.53 91.7519L256.439 91.9743ZM284.483 91.2787C281.906 91.3912 279.663 90.9375 277.753 89.9176C275.854 88.8858 274.355 87.3872 273.257 85.4219C272.17 83.4447 271.567 81.0995 271.448 78.3861C271.331 75.7069 271.728 73.3237 272.638 71.2366C273.559 69.1489 274.897 67.4924 276.652 66.2669C278.418 65.041 280.516 64.375 282.946 64.2689C284.422 64.2045 285.863 64.3861 287.269 64.8138C288.676 65.2415 289.952 65.9536 291.099 66.9499C292.246 67.9463 293.174 69.2651 293.882 70.9062C294.59 72.5359 294.996 74.5372 295.1 76.9099L295.179 78.715L274.386 79.6228L274.219 75.8083L290.022 75.1183C289.964 73.7787 289.64 72.6042 289.05 71.5949C288.459 70.5742 287.657 69.7846 286.643 69.226C285.64 68.6669 284.481 68.4162 283.164 68.4737C281.733 68.5361 280.5 68.9426 279.463 69.693C278.438 70.4317 277.66 71.3756 277.13 72.5248C276.611 73.6621 276.38 74.8836 276.437 76.1892L276.567 79.1693C276.643 80.9176 277.015 82.3915 277.681 83.5908C278.359 84.7897 279.269 85.6883 280.41 86.2869C281.55 86.8741 282.864 87.1352 284.351 87.0703C285.316 87.0281 286.19 86.8535 286.973 86.5463C287.755 86.2278 288.423 85.7777 288.978 85.1962C289.533 84.6146 289.946 83.9084 290.216 83.0776L295.074 83.7357C294.75 85.1717 294.111 86.445 293.159 87.5558C292.217 88.6548 291.01 89.5321 289.537 90.1879C288.075 90.8318 286.391 91.1954 284.483 91.2787ZM310.427 90.1289C308.315 90.2211 306.407 89.7641 304.703 88.758C303.009 87.74 301.647 86.2468 300.617 84.2785C299.598 82.2984 299.026 79.8949 298.903 77.068C298.78 74.2412 299.145 71.8024 300 69.7519C300.866 67.7008 302.104 66.1055 303.715 64.9659C305.326 63.8264 307.182 63.2108 309.282 63.1191C310.905 63.0482 312.223 63.2637 313.234 63.7655C314.257 64.2554 315.056 64.8461 315.632 65.5376C316.219 66.2285 316.678 66.8398 317.009 67.3713L317.315 67.3579L316.749 54.3987L321.841 54.1764L323.364 89.0522L318.391 89.2693L318.214 85.1994L317.788 85.2179C317.506 85.7876 317.091 86.4427 316.543 87.1832C316.006 87.9232 315.25 88.5818 314.275 89.159C313.299 89.7362 312.016 90.0595 310.427 90.1289ZM311.361 85.7374C312.826 85.6735 314.046 85.2334 315.023 84.4173C316.011 83.5894 316.735 82.4715 317.197 81.0636C317.67 79.6553 317.867 78.0315 317.786 76.1924C317.707 74.3759 317.376 72.7979 316.795 71.4584C316.213 70.1189 315.4 69.0908 314.357 68.3743C313.313 67.6578 312.048 67.332 310.56 67.3969C309.028 67.4638 307.768 67.9169 306.781 68.7563C305.794 69.5956 305.069 70.7135 304.607 72.11C304.156 73.5059 303.968 75.0668 304.044 76.7924C304.12 78.5407 304.45 80.1017 305.033 81.4753C305.616 82.8489 306.436 83.9221 307.494 84.6949C308.562 85.4558 309.851 85.8033 311.361 85.7374Z" fill="#121826"/>
<path d="M358.467 53.487L363.699 65.5701L376.192 69.7293L364.109 74.9615L359.95 87.4546L354.718 75.3715L342.225 71.2123L354.308 65.9802L358.467 53.487Z" fill="#F8872B"/>
<path d="M395.751 85.8915L394.229 51.0156L406.66 50.4728C409.362 50.3549 411.624 50.7224 413.447 51.5755C415.282 52.4282 416.678 53.6582 417.635 55.2657C418.592 56.8619 419.117 58.7328 419.211 60.8785C419.304 63.0128 418.938 64.9113 418.112 66.5739C417.297 68.2246 416.012 69.5376 414.257 70.5128C412.514 71.4875 410.291 72.0338 407.589 72.1518L398.172 72.563L397.974 68.0332L406.915 67.6428C408.618 67.5685 409.992 67.2639 411.038 66.7292C412.095 66.1939 412.853 65.4499 413.312 64.4972C413.771 63.5444 413.972 62.4153 413.915 61.1097C413.857 59.7928 413.552 58.663 412.999 57.7203C412.457 56.7771 411.636 56.0736 410.535 55.6098C409.445 55.1342 408.032 54.9343 406.295 55.0101L399.688 55.2986L401.013 85.6617L395.751 85.8915ZM412.281 69.4048L421.585 84.7636L415.59 85.0253L406.457 69.659L412.281 69.4048ZM436.5 84.6413C433.923 84.7538 431.679 84.3001 429.769 83.2801C427.87 82.2484 426.372 80.7498 425.274 78.7845C424.186 76.8073 423.583 74.462 423.465 71.7487C423.348 69.0694 423.744 66.6862 424.654 64.5991C425.575 62.5115 426.913 60.855 428.668 59.6295C430.435 58.4036 432.533 57.7376 434.962 57.6315C436.438 57.567 437.879 57.7487 439.286 58.1764C440.692 58.6041 441.969 59.3161 443.115 60.3125C444.262 61.3089 445.19 62.6276 445.899 64.2687C446.607 65.8985 447.013 67.8997 447.116 70.2725L447.195 72.0776L426.402 72.9854L426.236 69.1708L442.039 68.4809C441.98 67.1412 441.656 65.9668 441.066 64.9574C440.476 63.9368 439.673 63.1471 438.659 62.5886C437.657 62.0295 436.497 61.7787 435.18 61.8362C433.75 61.8987 432.516 62.3051 431.48 63.0556C430.454 63.7942 429.676 64.7381 429.146 65.8873C428.627 67.0247 428.396 68.2462 428.453 69.5517L428.583 72.5319C428.66 74.2802 429.031 75.754 429.698 76.9534C430.376 78.1522 431.285 79.0509 432.426 79.6494C433.566 80.2366 434.88 80.4977 436.367 80.4328C437.332 80.3907 438.206 80.216 438.989 79.9089C439.771 79.5903 440.44 79.1403 440.995 78.5587C441.549 77.9772 441.962 77.271 442.233 76.4402L447.09 77.0983C446.766 78.5342 446.128 79.8076 445.175 80.9184C444.234 82.0173 443.027 82.8947 441.554 83.5505C440.092 84.1944 438.407 84.558 436.5 84.6413ZM456.198 48.3099L457.721 83.1858L452.629 83.4081L451.107 48.5323L456.198 48.3099ZM463.852 82.9181L462.71 56.7612L467.801 56.5389L468.943 82.6958L463.852 82.9181ZM465.105 52.613C464.219 52.6517 463.446 52.3897 462.784 51.8272C462.134 51.2527 461.79 50.5511 461.754 49.7224C461.717 48.8823 461.998 48.1534 462.597 47.5358C463.206 46.9063 463.954 46.5723 464.839 46.5336C465.725 46.4949 466.493 46.7628 467.144 47.3373C467.805 47.8999 468.154 48.6012 468.191 49.4413C468.227 50.2701 467.941 50.9992 467.331 51.6286C466.732 52.2462 465.99 52.5744 465.105 52.613ZM482.711 82.6748C481.054 82.7472 479.542 82.5061 478.176 81.9515C476.809 81.3856 475.708 80.5294 474.873 79.3829C474.049 78.2359 473.6 76.8053 473.525 75.091C473.461 73.6151 473.692 72.388 474.218 71.4096C474.744 70.4312 475.477 69.6427 476.418 69.0443C477.358 68.4459 478.419 67.9787 479.598 67.6429C480.778 67.307 481.983 67.0383 483.214 66.8367C484.773 66.5866 486.038 66.3835 487.009 66.2274C487.98 66.0598 488.681 65.8302 489.112 65.5384C489.543 65.2466 489.745 64.7942 489.718 64.1811L489.713 64.0619C489.648 62.5747 489.178 61.4407 488.302 60.66C487.438 59.8788 486.182 59.5241 484.536 59.596C482.822 59.6708 481.487 60.1101 480.533 60.9139C479.589 61.7058 478.95 62.5697 478.616 63.5057L473.783 62.6247C474.281 61.0105 475.054 59.6915 476.101 58.6676C477.159 57.6318 478.394 56.8613 479.805 56.3561C481.216 55.8395 482.71 55.5468 484.288 55.4779C485.332 55.4323 486.445 55.5088 487.625 55.7075C488.816 55.8944 489.937 56.2891 490.987 56.8916C492.048 57.4936 492.934 58.3819 493.645 59.5566C494.356 60.7198 494.753 62.2551 494.836 64.1624L495.594 81.5322L490.622 81.7493L490.466 78.1732L490.261 78.1821C489.961 78.855 489.495 79.5236 488.865 80.1881C488.234 80.8526 487.411 81.4175 486.396 81.8826C485.382 82.3478 484.153 82.6119 482.711 82.6748ZM483.64 78.5395C485.048 78.478 486.239 78.1473 487.214 77.5474C488.2 76.947 488.934 76.187 489.417 75.2673C489.911 74.3358 490.136 73.3534 490.091 72.3203L489.943 68.9486C489.77 69.1381 489.425 69.3238 488.91 69.5055C488.406 69.6754 487.827 69.8315 487.173 69.9738C486.519 70.1047 485.882 70.2292 485.261 70.3473C484.64 70.454 484.121 70.5449 483.704 70.62C482.721 70.7881 481.828 71.0375 481.023 71.3683C480.23 71.6987 479.602 72.1527 479.138 72.7303C478.685 73.2961 478.478 74.033 478.518 74.9413C478.573 76.2014 479.08 77.1347 480.039 77.7412C480.998 78.3363 482.198 78.6024 483.64 78.5395ZM502.066 81.2497L500.543 46.3738L505.635 46.1515L506.2 59.1108L506.507 59.0974C506.778 58.5395 507.177 57.8909 507.702 57.1514C508.227 56.4118 508.971 55.7537 509.936 55.177C510.9 54.589 512.193 54.2595 513.817 54.1886C515.928 54.0964 517.836 54.5477 519.54 55.5425C521.245 56.5373 522.612 58.0189 523.642 59.9872C524.683 61.955 525.265 64.3523 525.389 67.1792C525.512 70.006 525.147 72.4504 524.293 74.5124C523.438 76.563 522.212 78.1691 520.613 79.3309C519.014 80.4813 517.159 81.1026 515.047 81.1947C513.458 81.2641 512.146 81.0541 511.113 80.5646C510.09 80.0747 509.28 79.4845 508.681 78.794C508.082 78.1036 507.617 77.4869 507.286 76.944L506.86 76.9626L507.038 81.0326L502.066 81.2497ZM506.484 67.9534C506.564 69.7925 506.902 71.393 507.496 72.7547C508.09 74.1165 508.909 75.167 509.954 75.9062C510.998 76.6341 512.252 76.9661 513.717 76.9021C515.238 76.8357 516.492 76.3771 517.478 75.5265C518.464 74.6645 519.188 73.5239 519.649 72.1047C520.122 70.685 520.32 69.101 520.244 67.3526C520.168 65.627 519.84 64.0887 519.257 62.7378C518.687 61.3865 517.867 60.336 516.799 59.5864C515.743 58.8363 514.448 58.4947 512.916 58.5616C511.44 58.6261 510.208 59.0609 509.219 59.8662C508.242 60.6709 507.522 61.7659 507.059 63.151C506.597 64.5361 506.405 66.1369 506.484 67.9534ZM534.525 44.8901L536.048 79.766L530.956 79.9883L529.433 45.1124L534.525 44.8901ZM553.475 79.534C550.898 79.6465 548.654 79.1928 546.744 78.1729C544.845 77.1411 543.346 75.6426 542.248 73.6772C541.161 71.7 540.558 69.3548 540.44 66.6415C540.323 63.9622 540.719 61.579 541.629 59.4919C542.55 57.4043 543.888 55.7477 545.643 54.5223C547.41 53.2963 549.508 52.6303 551.937 52.5242C553.413 52.4598 554.854 52.6414 556.26 53.0691C557.667 53.4968 558.943 54.2089 560.09 55.2053C561.237 56.2016 562.165 57.5204 562.873 59.1615C563.582 60.7912 563.987 62.7925 564.091 65.1652L564.17 66.9703L543.377 67.8782L543.211 64.0636L559.014 63.3736C558.955 62.034 558.631 60.8595 558.041 59.8502C557.45 58.8295 556.648 58.0399 555.634 57.4813C554.632 56.9223 553.472 56.6715 552.155 56.729C550.724 56.7914 549.491 57.1979 548.455 57.9484C547.429 58.687 546.651 59.6309 546.121 60.7801C545.602 61.9175 545.371 63.1389 545.428 64.4445L545.558 67.4246C545.635 69.173 546.006 70.6468 546.673 71.8461C547.351 73.045 548.26 73.9437 549.401 74.5422C550.541 75.1294 551.855 75.3905 553.342 75.3256C554.307 75.2834 555.181 75.1088 555.964 74.8016C556.746 74.4831 557.415 74.0331 557.969 73.4515C558.524 72.8699 558.937 72.1638 559.208 71.333L564.065 71.991C563.741 73.427 563.103 74.7004 562.15 75.8112C561.209 76.9101 560.001 77.7874 558.529 78.4432C557.067 79.0872 555.382 79.4508 553.475 79.534Z" fill="#121826"/>
<path d="M598.239 43.0182L603.471 55.1014L615.964 59.2605L603.881 64.4927L599.722 76.9859L594.49 64.9027L581.996 60.7436L594.08 55.5114L598.239 43.0182Z" fill="#F8872B"/>
<path d="M638.469 75.2946L632.883 75.5385L643.911 40.1146L649.991 39.8492L664.064 74.1771L658.478 74.421L647.372 46.3105L647.1 46.3223L638.469 75.2946ZM638.809 61.5962L656.928 60.8051L657.122 65.2327L639.003 66.0238L638.809 61.5962ZM672.12 38.883L673.643 73.7588L668.381 73.9886L666.858 39.1127L672.12 38.883Z" fill="#121826"/>
<path d="M708.134 38.2204L713.366 50.3035L725.859 54.4627L713.776 59.6949L709.617 72.188L704.385 60.1049L691.892 55.9457L703.975 50.7136L708.134 38.2204Z" fill="#F8872B"/>
<path d="M773.357 45.8258L768.044 46.0577C767.79 44.9314 767.366 43.9489 766.772 43.1104C766.178 42.2719 765.465 41.5694 764.633 41.0028C763.801 40.4363 762.878 40.0216 761.866 39.7587C760.865 39.4953 759.808 39.3879 758.695 39.4365C756.686 39.5242 754.909 40.108 753.363 41.1878C751.829 42.2671 750.645 43.8032 749.811 45.796C748.988 47.7883 748.638 50.1922 748.761 53.0077C748.885 55.846 749.443 58.2216 750.437 60.1346C751.442 62.0471 752.761 63.4682 754.394 64.3979C756.027 65.3275 757.837 65.749 759.823 65.6623C760.925 65.6142 761.963 65.421 762.937 65.0827C763.923 64.7325 764.806 64.2447 765.586 63.6192C766.367 62.9936 767.016 62.243 767.535 61.3672C768.065 60.4796 768.414 59.4748 768.581 58.3528L773.895 58.1379C773.686 59.8646 773.204 61.4666 772.45 62.9441C771.706 64.4098 770.721 65.6926 769.495 66.7926C768.28 67.8807 766.874 68.744 765.275 69.3825C763.676 70.0211 761.918 70.3822 759.999 70.466C756.979 70.5978 754.257 70.0001 751.833 68.6727C749.409 67.334 747.457 65.3548 745.978 62.735C744.51 60.1147 743.695 56.9484 743.533 53.236C743.37 49.5123 743.912 46.2867 745.158 43.5593C746.403 40.8206 748.175 38.6844 750.474 37.1509C752.773 35.606 755.426 34.7678 758.435 34.6365C760.285 34.5557 762.022 34.7471 763.646 35.2108C765.281 35.6627 766.763 36.3715 768.09 37.3372C769.417 38.2916 770.533 39.4827 771.437 40.9105C772.34 42.327 772.98 43.9654 773.357 45.8258ZM779.553 69.1345L778.411 42.9776L783.333 42.7627L783.514 46.9178L783.787 46.9059C784.202 45.4774 784.994 44.3338 786.162 43.4752C787.341 42.6048 788.697 42.1361 790.23 42.0692C790.547 42.0553 790.923 42.0503 791.355 42.0542C791.799 42.0575 792.146 42.0708 792.398 42.094L792.61 46.9643C792.403 46.9165 792.037 46.8699 791.512 46.8246C790.986 46.7679 790.462 46.751 789.94 46.7738C788.737 46.8263 787.675 47.1286 786.755 47.6806C785.846 48.2208 785.139 48.9512 784.633 49.8719C784.127 50.7812 783.898 51.8035 783.948 52.9388L784.645 68.9122L779.553 69.1345ZM801.681 77.9959C800.921 78.0291 800.225 77.9969 799.596 77.8993C798.966 77.813 798.495 77.7085 798.183 77.5856L799.227 73.3599C800.169 73.569 801.002 73.6407 801.727 73.5749C802.452 73.5091 803.082 73.2087 803.616 72.6735C804.161 72.1378 804.624 71.2816 805.005 70.1048L805.559 68.3403L794.832 42.2606L800.281 42.0227L807.792 62.0323L808.064 62.0204L813.803 41.4324L819.269 41.1937L809.784 71.3122C809.344 72.6964 808.758 73.8765 808.028 74.8525C807.297 75.8398 806.409 76.5952 805.362 77.1186C804.316 77.642 803.089 77.9344 801.681 77.9959ZM824.905 76.9819L823.335 41.0162L828.307 40.7991L828.492 45.0394L828.918 45.0208C829.19 44.463 829.588 43.8143 830.113 43.0748C830.638 42.3352 831.383 41.6771 832.347 41.1004C833.311 40.5124 834.605 40.1829 836.228 40.112C838.34 40.0198 840.248 40.4711 841.952 41.4659C843.656 42.4607 845.023 43.9423 846.053 45.9106C847.094 47.8784 847.677 50.2757 847.8 53.1026C847.924 55.9294 847.558 58.3738 846.704 60.4358C845.85 62.4864 844.623 64.0925 843.024 65.2543C841.425 66.4047 839.57 67.026 837.458 67.1182C835.869 67.1875 834.557 66.9775 833.524 66.488C832.501 65.9981 831.691 65.4079 831.092 64.7174C830.493 64.027 830.028 63.4103 829.697 62.8674L829.391 62.8808L829.997 76.7596L824.905 76.9819ZM828.895 53.8768C828.976 55.7159 829.313 57.3164 829.907 58.6781C830.501 60.0399 831.32 61.0904 832.365 61.8296C833.409 62.5575 834.663 62.8895 836.128 62.8255C837.649 62.7591 838.903 62.3006 839.89 61.4499C840.876 60.5879 841.599 59.4473 842.061 58.0281C842.533 56.6084 842.731 55.0244 842.655 53.276C842.58 51.5504 842.251 50.0121 841.669 48.6613C841.098 47.3099 840.279 46.2594 839.211 45.5098C838.154 44.7597 836.86 44.4181 835.327 44.485C833.851 44.5495 832.619 44.9843 831.63 45.7896C830.653 46.5943 829.933 47.6893 829.471 49.0744C829.008 50.4595 828.816 52.0603 828.895 53.8768ZM864.422 39.2223L864.601 43.3093L850.313 43.9331L850.135 39.8461L864.422 39.2223ZM853.693 33.412L858.784 33.1897L859.865 57.9332C859.908 58.9209 860.088 59.6581 860.405 60.1447C860.721 60.62 861.116 60.9383 861.59 61.0996C862.074 61.2491 862.594 61.3117 863.151 61.2874C863.559 61.2695 863.916 61.2255 864.22 61.1554C864.524 61.0852 864.76 61.0294 864.929 60.9879L866.032 65.154C865.742 65.2804 865.327 65.4123 864.787 65.5496C864.247 65.6983 863.569 65.7961 862.752 65.8432C861.414 65.9244 860.154 65.7405 858.975 65.2915C857.795 64.8426 856.825 64.1115 856.064 63.0982C855.303 62.085 854.888 60.7894 854.819 59.2113L853.693 33.412ZM881.237 65.2238C878.785 65.3308 876.621 64.8623 874.744 63.8182C872.867 62.7741 871.379 61.2637 870.281 59.287C869.182 57.3103 868.574 54.971 868.456 52.269C868.337 49.5557 868.739 47.1609 869.66 45.0846C870.582 43.0083 871.932 41.3683 873.711 40.1646C875.49 38.9609 877.605 38.3055 880.057 38.1984C882.51 38.0913 884.674 38.5599 886.551 39.604C888.428 40.6481 889.916 42.1642 891.015 44.1522C892.114 46.1403 892.723 48.491 892.841 51.2043C892.959 53.9062 892.557 56.2897 891.635 58.3546C890.713 60.4195 889.363 62.0539 887.584 63.2576C885.805 64.4613 883.69 65.1167 881.237 65.2238ZM881.068 60.9487C882.657 60.8793 883.956 60.4018 884.964 59.516C885.971 58.6303 886.695 57.4784 887.133 56.0602C887.583 54.6415 887.771 53.092 887.698 51.4118C887.625 49.7429 887.303 48.2214 886.731 46.8474C886.17 45.4614 885.349 44.3655 884.267 43.5597C883.185 42.7538 881.85 42.3856 880.26 42.455C878.66 42.5248 877.35 43.0086 876.331 43.9061C875.324 44.8032 874.596 45.9668 874.146 47.3968C873.708 48.815 873.525 50.3586 873.598 52.0274C873.671 53.7076 873.988 55.235 874.548 56.6096C875.12 57.9837 875.947 59.068 877.028 59.8625C878.12 60.6565 879.467 61.0186 881.068 60.9487Z" fill="#121826"/>
<path d="M926.926 28.6677L932.158 40.7508L944.651 44.9099L932.568 50.1421L928.409 62.6353L923.176 50.5522L910.683 46.393L922.766 41.1608L926.926 28.6677Z" fill="#F8872B"/>
<path d="M982.532 34.0654C982.252 32.3487 981.365 31.0452 979.87 30.1551C978.376 29.2649 976.572 28.8659 974.461 28.9581C972.917 29.0255 971.577 29.3342 970.44 29.8843C969.316 30.4339 968.449 31.1599 967.84 32.0623C967.242 32.9642 966.968 33.9715 967.016 35.0841C967.057 36.015 967.313 36.8057 967.785 37.4562C968.268 38.0948 968.871 38.6202 969.594 39.0322C970.317 39.4329 971.071 39.7583 971.855 40.0084C972.639 40.2471 973.358 40.4375 974.013 40.5796L977.596 41.3786C978.515 41.5773 979.54 41.8624 980.671 42.2339C981.813 42.6049 982.911 43.1314 983.964 43.8133C985.029 44.4835 985.92 45.3659 986.639 46.4605C987.358 47.5552 987.753 48.92 987.825 50.5548C987.907 52.4394 987.487 54.1638 986.566 55.7282C985.656 57.2921 984.278 58.5637 982.433 59.5428C980.599 60.5215 978.342 61.0693 975.663 61.1863C973.165 61.2953 970.985 60.9867 969.122 60.2605C967.271 59.5337 965.791 58.4723 964.684 57.0761C963.588 55.6794 962.93 54.0304 962.71 52.129L967.07 51.9387C967.241 53.2507 967.731 54.3212 968.541 55.1503C969.361 55.9676 970.377 56.5602 971.587 56.9282C972.808 57.2844 974.112 57.4322 975.497 57.3717C977.109 57.3014 978.545 56.977 979.805 56.3988C981.064 55.8092 982.048 55.0269 982.756 54.0519C983.464 53.0656 983.79 51.9366 983.735 50.6651C983.684 49.5071 983.319 48.579 982.64 47.8806C981.962 47.1823 981.084 46.6291 980.009 46.2211C978.933 45.8131 977.775 45.4656 976.534 45.1785L972.189 44.1398C969.43 43.4754 967.224 42.4513 965.571 41.0676C963.919 39.6838 963.041 37.8169 962.938 35.4669C962.853 33.5142 963.307 31.7882 964.299 30.2889C965.302 28.7778 966.683 27.5801 968.442 26.6957C970.211 25.7995 972.208 25.3028 974.433 25.2057C976.681 25.1075 978.697 25.4233 980.48 26.153C982.263 26.8714 983.696 27.9008 984.778 29.2412C985.872 30.5812 986.486 32.1297 986.619 33.887L982.532 34.0654ZM997.249 43.8646L997.936 59.5996L993.917 59.7751L992.395 24.8992L996.414 24.7237L996.973 37.5297L997.313 37.5148C997.867 36.1371 998.74 35.0241 999.931 34.1759C1001.13 33.3158 1002.76 32.8409 1004.82 32.7512C1006.6 32.6734 1008.18 32.9628 1009.55 33.6196C1010.92 34.2649 1012 35.3038 1012.81 36.7361C1013.62 38.1565 1014.07 39.9907 1014.17 42.2385L1014.9 58.8591L1010.88 59.0345L1010.16 42.6865C1010.07 40.6089 1009.46 39.026 1008.34 37.9378C1007.22 36.8378 1005.71 36.3292 1003.82 36.4119C1002.5 36.4694 1001.33 36.7991 1000.31 37.401C999.302 38.0024 998.52 38.8498 997.965 39.9433C997.422 41.0362 997.183 42.3433 997.249 43.8646ZM1032.18 58.6504C1029.82 58.7535 1027.72 58.282 1025.89 57.2359C1024.07 56.1893 1022.62 54.6774 1021.53 52.7002C1020.45 50.7226 1019.86 48.3827 1019.74 45.6808C1019.62 42.9561 1020.01 40.5561 1020.91 38.4808C1021.82 36.4051 1023.14 34.7665 1024.86 33.5653C1026.59 32.3635 1028.64 31.7111 1031 31.608C1033.36 31.5049 1035.45 31.9767 1037.27 33.0233C1039.1 34.0694 1040.56 35.587 1041.63 37.576C1042.72 39.5645 1043.33 41.9211 1043.44 44.6458C1043.56 47.3478 1043.17 49.731 1042.25 51.7954C1041.36 53.8593 1040.04 55.4922 1038.31 56.6939C1036.58 57.8952 1034.54 58.5473 1032.18 58.6504ZM1032.02 55.0402C1033.82 54.9619 1035.27 54.4377 1036.39 53.4676C1037.51 52.4974 1038.31 51.2509 1038.8 49.7281C1039.29 48.2052 1039.5 46.5696 1039.43 44.8213C1039.35 43.0729 1039 41.456 1038.38 39.9703C1037.76 38.4847 1036.84 37.3017 1035.65 36.4213C1034.45 35.5409 1032.95 35.1399 1031.16 35.2182C1029.36 35.2965 1027.91 35.8264 1026.79 36.8079C1025.67 37.7894 1024.87 39.0473 1024.38 40.5815C1023.89 42.1157 1023.68 43.757 1023.76 45.5053C1023.83 47.2536 1024.18 48.8649 1024.81 50.3392C1025.43 51.8135 1026.34 52.9852 1027.54 53.8542C1028.73 54.7232 1030.23 55.1186 1032.02 55.0402ZM1049.85 67.1604L1048.28 31.1947L1052.17 31.0252L1052.35 35.1803L1052.82 35.1595C1053.1 34.6925 1053.48 34.0956 1053.97 33.369C1054.48 32.6304 1055.21 31.9615 1056.17 31.362C1057.15 30.7508 1058.49 30.408 1060.19 30.3336C1062.39 30.2375 1064.36 30.7033 1066.08 31.7312C1067.81 32.759 1069.19 34.2628 1070.22 36.2425C1071.25 38.2221 1071.83 40.5857 1071.95 43.333C1072.07 46.1031 1071.7 48.5248 1070.85 50.5981C1070 52.6601 1068.76 54.2837 1067.14 55.4692C1065.52 56.6433 1063.62 57.2779 1061.44 57.3731C1059.76 57.4464 1058.4 57.227 1057.36 56.7149C1056.33 56.1913 1055.52 55.5839 1054.95 54.8924C1054.37 54.1896 1053.92 53.6063 1053.61 53.1423L1053.27 53.1572L1053.87 66.9849L1049.85 67.1604ZM1052.8 44.1006C1052.89 46.076 1053.26 47.806 1053.9 49.2907C1054.55 50.764 1055.44 51.9021 1056.59 52.705C1057.74 53.4965 1059.12 53.8571 1060.73 53.7867C1062.41 53.7133 1063.8 53.2093 1064.88 52.2747C1065.98 51.3283 1066.78 50.0877 1067.28 48.553C1067.79 47.0065 1068.01 45.3023 1067.93 43.4404C1067.85 41.6012 1067.49 39.9561 1066.86 38.505C1066.24 37.0421 1065.34 35.904 1064.17 35.0908C1063 34.2657 1061.57 33.8903 1059.87 33.9646C1058.23 34.036 1056.88 34.5104 1055.8 35.3877C1054.73 36.2537 1053.94 37.437 1053.43 38.9377C1052.93 40.427 1052.72 42.1479 1052.8 44.1006ZM1078.36 65.916L1076.79 29.9502L1080.67 29.7807L1080.85 33.9358L1081.33 33.915C1081.6 33.448 1081.98 32.8512 1082.48 32.1245C1082.98 31.386 1083.71 30.717 1084.68 30.1176C1085.65 29.5063 1086.99 29.1635 1088.69 29.0892C1090.89 28.993 1092.86 29.4589 1094.59 30.4867C1096.32 31.5146 1097.69 33.0184 1098.73 34.998C1099.76 36.9777 1100.33 39.3412 1100.45 42.0886C1100.57 44.8587 1100.21 47.2804 1099.35 49.3537C1098.5 51.4156 1097.26 53.0393 1095.64 54.2247C1094.02 55.3988 1092.12 56.0334 1089.94 56.1286C1088.26 56.202 1086.9 55.9826 1085.87 55.4704C1084.83 54.9469 1084.03 54.3394 1083.45 53.648C1082.87 52.9452 1082.43 52.3618 1082.11 51.8979L1081.77 51.9127L1082.37 65.7405L1078.36 65.916ZM1081.31 42.8562C1081.39 44.8316 1081.76 46.5616 1082.4 48.0462C1083.05 49.5195 1083.95 50.6576 1085.1 51.4605C1086.24 52.252 1087.63 52.6126 1089.24 52.5422C1090.92 52.4689 1092.3 51.9649 1093.39 51.0303C1094.48 50.0838 1095.28 48.8433 1095.78 47.3086C1096.29 45.762 1096.51 44.0578 1096.43 42.1959C1096.35 40.3568 1095.99 38.7117 1095.36 37.2606C1094.74 35.7976 1093.84 34.6595 1092.67 33.8463C1091.51 33.0212 1090.07 32.6458 1088.37 32.7202C1086.74 32.7916 1085.38 33.2659 1084.3 34.1432C1083.23 35.0092 1082.44 36.1925 1081.93 37.6932C1081.43 39.1825 1081.22 40.9035 1081.31 42.8562ZM1106.43 54.8627L1105.29 28.7058L1109.31 28.5303L1110.45 54.6872L1106.43 54.8627ZM1107.14 24.257C1106.36 24.2913 1105.67 24.054 1105.08 23.5452C1104.5 23.0359 1104.19 22.4066 1104.16 21.6573C1104.13 20.908 1104.38 20.2544 1104.91 19.6965C1105.46 19.1382 1106.12 18.8419 1106.9 18.8077C1107.69 18.7735 1108.37 19.011 1108.95 19.5203C1109.54 20.0291 1109.85 20.6582 1109.88 21.4075C1109.92 22.1567 1109.66 22.8106 1109.12 23.3689C1108.58 23.9268 1107.92 24.2228 1107.14 24.257ZM1120.42 38.4867L1121.11 54.2217L1117.09 54.3972L1115.95 28.2403L1119.83 28.0708L1120.01 32.1578L1120.35 32.1429C1120.91 30.7879 1121.79 29.6801 1123 28.8195C1124.22 27.9476 1125.81 27.4685 1127.79 27.3822C1129.56 27.3049 1131.12 27.6005 1132.48 28.2691C1133.84 28.9264 1134.92 29.9711 1135.72 31.4034C1136.53 32.8244 1136.98 34.6474 1137.07 36.8726L1137.8 53.4931L1133.78 53.6686L1133.07 37.3205C1132.98 35.2656 1132.37 33.6882 1131.26 32.5881C1130.14 31.4768 1128.65 30.9617 1126.79 31.043C1125.5 31.099 1124.37 31.4272 1123.38 32.0276C1122.41 32.6275 1121.65 33.4737 1121.12 34.5661C1120.59 35.6586 1120.36 36.9654 1120.42 38.4867ZM1155.43 63.0967C1153.49 63.1814 1151.81 63.0045 1150.39 62.566C1148.98 62.1388 1147.78 61.5425 1146.82 60.777C1145.86 60.0225 1145.09 59.203 1144.51 58.3186L1147.61 55.9309C1148 56.3919 1148.48 56.9168 1149.06 57.5055C1149.65 58.1056 1150.43 58.6117 1151.42 59.0237C1152.41 59.4465 1153.7 59.6235 1155.28 59.5546C1157.39 59.4624 1159.11 58.8754 1160.44 57.7937C1161.77 56.712 1162.39 55.0812 1162.29 52.9015L1162.06 47.5884L1161.72 47.6032C1161.44 48.0929 1161.05 48.7016 1160.53 49.4293C1160.03 50.1451 1159.29 50.7975 1158.3 51.3866C1157.32 51.9638 1155.98 52.2896 1154.28 52.3639C1152.17 52.4561 1150.25 52.0394 1148.53 51.1137C1146.82 50.1875 1145.43 48.7921 1144.37 46.9274C1143.32 45.0623 1142.74 42.7674 1142.62 40.0427C1142.5 37.3634 1142.87 35.0099 1143.73 32.982C1144.58 30.9427 1145.83 29.3415 1147.46 28.1783C1149.09 27.0037 1151.01 26.3683 1153.21 26.2722C1154.91 26.1978 1156.28 26.4226 1157.3 26.9467C1158.34 27.4588 1159.14 28.0609 1159.7 28.7528C1160.28 29.4329 1160.72 29.9936 1161.04 30.4348L1161.45 30.4169L1161.26 26.2618L1165.15 26.0923L1166.32 52.9985C1166.42 55.2463 1165.99 57.0964 1165.03 58.5488C1164.08 60.012 1162.76 61.1103 1161.08 61.8436C1159.4 62.5878 1157.52 63.0055 1155.43 63.0967ZM1154.67 48.7299C1156.28 48.6595 1157.63 48.2311 1158.71 47.4446C1159.79 46.6581 1160.59 45.5597 1161.11 44.1493C1161.62 42.739 1161.84 41.0689 1161.76 39.1389C1161.68 37.2543 1161.32 35.6035 1160.69 34.1865C1160.06 32.7695 1159.17 31.6765 1158.02 30.9077C1156.87 30.1389 1155.48 29.7902 1153.85 29.8615C1152.14 29.9359 1150.74 30.4293 1149.64 31.3416C1148.56 32.2535 1147.76 33.4484 1147.26 34.9264C1146.77 36.4038 1146.56 38.0281 1146.64 39.7991C1146.71 41.6156 1147.07 43.2096 1147.7 44.5812C1148.34 45.941 1149.24 46.9937 1150.39 47.7393C1151.56 48.4731 1152.99 48.8033 1154.67 48.7299Z" fill="#121826"/>
<path d="M1200.66 16.716L1205.9 28.7991L1218.39 32.9583L1206.31 38.1905L1202.15 50.6836L1196.92 38.6005L1184.42 34.4413L1196.51 29.2092L1200.66 16.716Z" fill="#F8872B"/>
<path d="M1255.24 14.8776L1255.4 18.4262L1240.87 19.0606L1241.36 30.3299L1253.16 29.8149L1253.31 33.3635L1241.52 33.8785L1242.17 48.9362L1237.81 49.1267L1236.35 15.7026L1255.24 14.8776ZM1283.41 20.8066L1284.56 47.0855L1280.2 47.2761L1280.03 43.3918C1279.25 44.7708 1278.13 45.8767 1276.66 46.7096C1275.23 47.5091 1273.61 47.9479 1271.82 48.0261C1269.78 48.1154 1267.92 47.7801 1266.25 47.0201C1264.58 46.2281 1263.23 45.0058 1262.2 43.3533C1261.2 41.6994 1260.65 39.6576 1260.54 37.2279L1259.87 21.8346L1264.18 21.6461L1264.83 36.464C1264.94 39.0536 1265.69 41.023 1267.06 42.3725C1268.43 43.6899 1270.25 44.2991 1272.52 44.2C1274.85 44.0981 1276.66 43.2985 1277.94 41.8013C1279.22 40.304 1279.8 38.1807 1279.68 35.4313L1279.05 20.9971L1283.41 20.8066ZM1295.54 23.8804L1296.22 39.3697C1296.27 40.6485 1296.59 41.5477 1297.15 42.0675C1297.72 42.5553 1298.67 42.7698 1300.02 42.7112L1303.23 42.5709L1303.39 46.2634L1299.46 46.4351C1297.03 46.5412 1295.18 46.0613 1293.92 44.9954C1292.65 43.9295 1291.97 42.1178 1291.85 39.5602L1291.18 24.071L1287.77 24.2196L1287.62 20.623L1291.02 20.4744L1290.73 13.8567L1295.1 13.6662L1295.39 20.2839L1302.24 19.9845L1302.4 23.581L1295.54 23.8804ZM1330.12 18.7675L1331.26 45.0464L1326.9 45.237L1326.73 41.3527C1325.96 42.7317 1324.84 43.8376 1323.37 44.6705C1321.93 45.47 1320.32 45.9088 1318.52 45.987C1316.48 46.0763 1314.62 45.741 1312.96 44.981C1311.29 44.189 1309.94 42.9667 1308.9 41.3142C1307.9 39.6603 1307.35 37.6185 1307.24 35.1888L1306.57 19.7955L1310.89 19.607L1311.53 34.4249C1311.65 37.0145 1312.39 38.9839 1313.76 40.3334C1315.13 41.6508 1316.95 42.26 1319.22 42.1609C1321.56 42.059 1323.36 41.2594 1324.64 39.7622C1325.92 38.2649 1326.5 36.1416 1326.38 33.3922L1325.75 18.958L1330.12 18.7675ZM1341.32 22.5546C1342.02 21.0185 1343.05 19.8042 1344.42 18.9115C1345.83 18.0175 1347.55 17.5258 1349.6 17.4365L1349.79 21.9442L1348.64 21.9945C1343.75 22.208 1341.42 24.9683 1341.65 30.2752L1342.28 44.5656L1337.91 44.7561L1336.77 18.4772L1341.13 18.2866L1341.32 22.5546ZM1378.44 28.8131C1378.48 29.6443 1378.47 30.5256 1378.41 31.4569L1357.41 32.3739C1357.68 34.9565 1358.65 36.9482 1360.31 38.349C1362.01 39.7164 1364 40.3499 1366.31 40.2494C1368.19 40.167 1369.74 39.667 1370.95 38.7494C1372.19 37.7984 1373.03 36.5765 1373.48 35.0836L1378.18 34.8784C1377.59 37.4347 1376.27 39.5581 1374.23 41.2487C1372.19 42.9074 1369.6 43.8051 1366.47 43.9419C1363.97 44.0507 1361.71 43.589 1359.68 42.5566C1357.68 41.5228 1356.08 40.0073 1354.87 38.0101C1353.66 35.9809 1352.99 33.6076 1352.88 30.8902C1352.76 28.1728 1353.2 25.7674 1354.19 23.6739C1355.19 21.5803 1356.64 19.9475 1358.55 18.7754C1360.48 17.57 1362.72 16.9114 1365.28 16.7997C1367.78 16.6908 1370 17.138 1371.97 18.1412C1373.94 19.1444 1375.47 20.5828 1376.58 22.4563C1377.72 24.2965 1378.34 26.4154 1378.44 28.8131ZM1373.89 28.0988C1373.82 26.4364 1373.39 25.0298 1372.61 23.879C1371.82 22.6963 1370.77 21.8291 1369.46 21.2775C1368.19 20.6926 1366.79 20.4336 1365.25 20.5006C1363.04 20.5969 1361.19 21.3826 1359.68 22.8576C1358.21 24.3313 1357.42 26.3198 1357.3 28.8232L1373.89 28.0988Z" fill="#121826"/>
<path d="M1412.46 7.46843L1417.7 19.5516L1430.19 23.7107L1418.11 28.9429L1413.95 41.4361L1408.71 29.3529L1396.22 25.1938L1408.3 19.9616L1412.46 7.46843Z" fill="#F8872B"/>
</g>
<defs>
<clipPath id="clip0_137_2384">
<path d="M-3 24.7207C-3 11.4659 7.74517 0.720703 21 0.720703H1437V123.721C1437 136.976 1426.25 147.721 1413 147.721H-3V24.7207Z" fill="white"/>
</clipPath>
</defs>
</svg>
