<svg width="360" height="213" viewBox="0 0 360 213" fill="none" xmlns="http://www.w3.org/2000/svg">
<g clip-path="url(#clip0_141_339)">
<g opacity="0.4">
<path d="M20.5713 -94V351" stroke="#B3B3B3" stroke-width="1.1125"/>
<path d="M84.1431 -94V351" stroke="#B3B3B3" stroke-width="1.1125"/>
<path d="M147.714 -94V351" stroke="#B3B3B3" stroke-width="1.1125"/>
<path d="M211.286 -94V351" stroke="#B3B3B3" stroke-width="1.1125"/>
<path d="M274.857 -94V351" stroke="#B3B3B3" stroke-width="1.1125"/>
<path d="M338.429 -94V351" stroke="#B3B3B3" stroke-width="1.1125"/>
<path d="M-43 33.1428H402" stroke="#B3B3B3" stroke-width="1.1125"/>
<path d="M-43 96.7144H402" stroke="#B3B3B3" stroke-width="1.1125"/>
<path d="M-43 160.286H402" stroke="#B3B3B3" stroke-width="1.1125"/>
</g>
<path d="M43 73C44.6569 73 46 71.6569 46 70C46 68.3431 44.6569 67 43 67C41.3431 67 40 68.3431 40 70C40 71.6569 41.3431 73 43 73Z" fill="#3C3C43" fill-opacity="0.6" stroke="#3C3C43" stroke-opacity="0.6" stroke-width="2" stroke-linecap="round" stroke-linejoin="round"/>
<path d="M55 72C56.6569 72 58 70.6569 58 69C58 67.3431 56.6569 66 55 66C53.3431 66 52 67.3431 52 69C52 70.6569 53.3431 72 55 72Z" fill="#3C3C43" fill-opacity="0.6" stroke="#3C3C43" stroke-opacity="0.6" stroke-width="2" stroke-linecap="round" stroke-linejoin="round"/>
<path d="M58 55L46 58V62L58 59V55Z" fill="#3C3C43" fill-opacity="0.6"/>
<path d="M46 70V62M46 62V58L58 55V59M46 62L58 59M58 69V59" stroke="#3C3C43" stroke-opacity="0.6" stroke-width="2" stroke-linecap="round" stroke-linejoin="round"/>
<path d="M311 188C311 185.791 309.209 184 307 184C304.791 184 303 185.791 303 188V193C303 195.209 304.791 197 307 197C309.209 197 311 195.209 311 193V188Z" fill="#3C3C43" fill-opacity="0.6"/>
<path d="M300 193C300 193.919 300.181 194.83 300.533 195.679C300.885 196.528 301.4 197.3 302.05 197.95C302.7 198.6 303.472 199.115 304.321 199.467C305.17 199.819 306.081 200 307 200C307.919 200 308.83 199.819 309.679 199.467C310.528 199.115 311.3 198.6 311.95 197.95C312.6 197.3 313.115 196.528 313.467 195.679C313.819 194.83 314 193.919 314 193M307 203V201" stroke="#3C3C43" stroke-opacity="0.6" stroke-width="2" stroke-linecap="round" stroke-linejoin="round"/>
<path d="M-210 112.624H-161.312M-161.312 112.624C-161.312 112.624 -132.5 63.4039 -112.625 60.1227C-88.3013 56.1071 -88.9873 152 -63.9375 152C-50 152 -36 83.2116 -15.25 86.3733C1 88.8494 14.6091 130.124 33.4375 130.124C58.5 130.124 59.5 80.0294 82.125 73.248C102.807 67.0492 105 146.74 130.812 143.25C156.625 139.76 156 88.1003 179.5 90.7485M-161.312 112.624C-161.312 112.624 -129.5 77.6231 -112.625 77.6231C-74.1768 77.6231 -94.5 152 -63.9375 149.812C-39.8206 148.086 -38 100.592 -15.25 103.874C7.30585 107.127 7.5 140.325 33.4375 143.25C59.375 146.174 62.25 83.8163 82.125 86.3733C102 88.9304 112.125 121.712 130.812 121.374C149.5 121.036 163.5 92.5515 179.5 90.7485M179.5 90.7485C195.5 92.5515 209.5 121.036 228.188 121.374C246.875 121.712 257 88.9304 276.875 86.3733C296.75 83.8163 299.625 146.174 325.562 143.25C351.5 140.325 351.694 107.127 374.25 103.874C397 100.592 398.821 148.086 422.938 149.812C453.5 152 433.177 77.6231 471.625 77.6231C488.5 77.6231 520.312 112.624 520.312 112.624M179.5 90.7485C203 88.1003 202.375 139.76 228.188 143.25C254 146.74 256.193 67.0492 276.875 73.248C299.5 80.0294 300.5 130.124 325.562 130.124C344.391 130.124 358 88.8494 374.25 86.3733C395 83.2116 409 152 422.938 152C447.987 152 447.301 56.1071 471.625 60.1227C491.5 63.4039 520.312 112.624 520.312 112.624M520.312 112.624H569" stroke="#3C3C43" stroke-opacity="0.6"/>
</g>
<defs>
<clipPath id="clip0_141_339">
<rect width="360" height="213" rx="8" fill="white"/>
</clipPath>
</defs>
</svg>
